<svg width="390" height="312" viewBox="0 0 390 312" fill="none" xmlns="http://www.w3.org/2000/svg">
<g clip-path="url(#clip0_7418_9601)">
<path d="M261.588 289.936H254.41V290.145H261.588V289.936Z" fill="#EBEBEB"/>
<path d="M243.639 269.304H226.202L235.371 193.626C235.759 190.419 238.633 187.823 241.797 187.823H317.871L306.72 269.296H243.639V269.304Z" fill="#F5F5F5"/>
<path d="M298.931 269.304H316.368L325.537 193.626C325.925 190.419 323.678 187.823 320.515 187.823H314.526C311.362 187.823 308.488 190.419 308.1 193.626L298.931 269.304Z" fill="#F0F0F0"/>
<path d="M292.513 269.212L295.668 232.612C295.809 230.979 297.056 229.664 298.659 229.455L299.955 229.288C302.111 229.011 303.78 227.245 303.97 225.051L304.548 218.377C304.787 215.639 302.656 213.286 299.947 213.286H329.088C331.798 213.286 333.921 215.639 333.689 218.377L333.111 225.051C332.921 227.245 331.253 229.003 329.097 229.288L327.8 229.455C326.197 229.664 324.95 230.979 324.81 232.612L321.654 269.212C321.423 271.883 319.218 273.926 316.575 273.926H287.433C290.076 273.926 292.282 271.875 292.513 269.212Z" fill="#E6E6E6"/>
<path d="M212.325 223.451C211.829 217.707 207.08 213.294 201.389 213.294H226.755C232.446 213.294 237.196 217.707 237.692 223.451L240.194 252.465H214.828L212.325 223.451Z" fill="#E6E6E6"/>
<path d="M190.122 213.294H201.389C207.08 213.294 211.829 217.707 212.325 223.451L214.828 252.465H275.241L277.744 223.451C278.24 217.707 282.989 213.294 288.68 213.294H299.947C302.656 213.294 304.779 215.647 304.548 218.385L303.97 225.059C303.78 227.253 302.111 229.011 299.955 229.296L298.659 229.463C297.056 229.673 295.809 230.987 295.668 232.62L292.513 269.22C292.282 271.891 290.076 273.934 287.433 273.934H202.644C200.001 273.934 197.796 271.883 197.564 269.22L194.409 232.62C194.269 230.987 193.021 229.673 191.419 229.463L190.122 229.296C187.966 229.02 186.298 227.253 186.108 225.059L185.53 218.385C185.29 215.647 187.421 213.294 190.13 213.294H190.122Z" fill="#F0F0F0"/>
<path d="M64.4132 63.9639C64.4132 63.9639 63.4468 57.4913 68.0971 53.3465C72.7558 49.2017 72.3428 46.7315 71.0129 46.405C69.6831 46.0868 68.4523 50.2316 66.4121 51.3704C66.4121 51.3704 66.346 45.4588 68.4275 43.2817C70.5091 41.1046 71.5994 35.4945 69.617 35.394C67.6346 35.2935 67.4363 38.7266 67.0233 41.1549C66.6103 43.5831 64.4132 47.0078 64.4132 47.0078C64.4132 47.0078 63.9837 41.7159 62.6373 39.5388C61.2909 37.3617 64.8757 32.3796 63.4963 30.2025C62.1169 28.0254 59.6637 32.1702 59.8619 36.8426C60.0684 41.5065 63.1329 46.4887 62.4225 51.362C62.4225 51.362 61.0679 47.9373 59.8537 47.6275C58.6394 47.3177 57.4087 45.0569 56.591 44.2111C55.7732 43.3654 54.749 46.2794 56.591 48.9756C58.4329 51.6718 63.1411 58.8813 62.4225 64.7175L64.4132 63.9472V63.9639Z" fill="#E6E6E6"/>
<path d="M67.1969 61.0249L68.725 70.7213C69.1958 73.7189 66.9161 76.4235 63.9259 76.4235H62.2987C59.3086 76.4235 57.0288 73.7106 57.4997 70.7213L59.0278 61.0249H67.2134H67.1969Z" fill="#E6E6E6"/>
<path d="M44.1431 78.458L151.887 78.458V72.8479L44.1431 72.8479V78.458Z" fill="#E0E0E0"/>
<path d="M142.173 72.8481H146.922V52.1659H142.173V72.8481Z" fill="#EBEBEB"/>
<path d="M119.227 72.8481H123.976V52.1659H119.227V72.8481Z" fill="#EBEBEB"/>
<path d="M89.6995 72.0264L94.38 72.8442L97.8456 52.4626L93.1652 51.6447L89.6995 72.0264Z" fill="#EBEBEB"/>
<path d="M136.292 72.8481H141.041V54.8873H136.292V72.8481Z" fill="#EBEBEB"/>
<path d="M125.38 72.8481H130.13V54.8873H125.38V72.8481Z" fill="#EBEBEB"/>
<path d="M97.8497 72.8481H102.599V54.8873H97.8497V72.8481Z" fill="#EBEBEB"/>
<path d="M109.153 71.7968L113.79 72.8413L117.634 55.3082L112.997 54.2637L109.153 71.7968Z" fill="#EBEBEB"/>
<path d="M132.195 72.8481H134.565V51.136H132.195V72.8481Z" fill="#EBEBEB"/>
<path d="M103.962 72.8481H106.333V51.136H103.962V72.8481Z" fill="#EBEBEB"/>
<path d="M151.887 114.74H44.1432V120.35H151.887V114.74Z" fill="#E0E0E0"/>
<path d="M53.8487 94.0576H49.0992V114.74H53.8487V94.0576Z" fill="#EBEBEB"/>
<path d="M76.8032 94.0576H72.0537V114.74H76.8032V94.0576Z" fill="#EBEBEB"/>
<path d="M102.861 93.5376L98.1801 94.3555L101.646 114.737L106.326 113.919L102.861 93.5376Z" fill="#EBEBEB"/>
<path d="M59.7298 96.7793H54.9803V114.74H59.7298V96.7793Z" fill="#EBEBEB"/>
<path d="M70.6412 96.7793H65.8917V114.74H70.6412V96.7793Z" fill="#EBEBEB"/>
<path d="M98.1802 96.7793H93.4307V114.74H98.1802V96.7793Z" fill="#EBEBEB"/>
<path d="M83.0393 96.1635L78.403 97.208L82.2468 114.741L86.8832 113.697L83.0393 96.1635Z" fill="#EBEBEB"/>
<path d="M63.835 93.0278H61.4644V114.74H63.835V93.0278Z" fill="#EBEBEB"/>
<path d="M92.0678 93.0278H89.6971V114.74H92.0678V93.0278Z" fill="#EBEBEB"/>
<path d="M141.545 98.3701H118.417V114.556H141.545V98.3701Z" fill="#EBEBEB"/>
<path d="M326.932 57.9937H234.264V161.89H326.932V57.9937Z" fill="#E0E0E0"/>
<path d="M329.89 57.9937H233.776V161.89H329.89V57.9937Z" fill="#F0F0F0"/>
<path d="M325.826 61.3096H237.692V157.118H325.826V61.3096Z" fill="white"/>
<path d="M325.826 61.3096H323.273V157.118H325.826V61.3096Z" fill="#E0E0E0"/>
<path d="M237.46 130.197V132.785H323.546V130.197H237.46Z" fill="#E0E0E0"/>
<path d="M325.826 125.868H236.32V130.206H325.826V125.868Z" fill="#F0F0F0"/>
<path d="M194.5 312C282.95 312 354.653 307.757 354.653 302.522C354.653 297.287 282.95 293.043 194.5 293.043C106.05 293.043 34.3468 297.287 34.3468 302.522C34.3468 307.757 106.05 312 194.5 312Z" fill="#F5F5F5"/>
<path d="M258.242 288.714C258.837 287.709 258.003 286.185 256.838 286.168C257.342 284.72 256.838 282.97 255.649 282.024C255.5 281.906 255.327 281.789 255.137 281.789C254.93 281.789 254.748 281.915 254.583 282.04C253.493 282.836 252.403 283.631 251.312 284.427C251.064 284.611 250.8 284.803 250.66 285.08C249.991 286.394 252.403 288.077 251.411 289.158C251.13 289.467 250.668 289.534 250.313 289.76C249.536 290.255 249.437 291.335 249.074 292.189C248.71 293.043 247.447 293.704 246.959 292.917C247.314 292.097 246.232 291.393 245.357 291.284C244.489 291.184 243.564 291.134 243.077 290.296C241.83 291.402 239.038 288.32 239.104 287.081C238.08 287.156 237.378 288.136 237.155 289.107C236.923 290.121 237.064 291.167 237.047 292.206C237.014 294.215 236.378 296.191 236.411 298.201C236.436 299.767 237.039 301.508 238.451 302.136C239.129 302.438 239.897 302.438 240.64 302.438C246.009 302.404 251.37 302.371 256.739 302.337C257.127 302.337 257.532 302.329 257.871 302.145C258.598 301.76 258.754 300.797 258.821 299.968C259.11 296.426 259.399 292.875 259.688 289.333C259.201 289.133 258.713 288.932 258.234 288.731L258.242 288.714Z" fill="#059456"/>
<path opacity="0.3" d="M258.242 288.714C258.837 287.709 258.003 286.185 256.838 286.168C257.342 284.72 256.838 282.97 255.649 282.024C255.5 281.906 255.327 281.789 255.137 281.789C254.93 281.789 254.748 281.915 254.583 282.04C253.493 282.836 252.403 283.631 251.312 284.427C251.064 284.611 250.8 284.803 250.66 285.08C249.991 286.394 252.403 288.077 251.411 289.158C251.13 289.467 250.668 289.534 250.313 289.76C249.536 290.255 249.437 291.335 249.074 292.189C248.71 293.043 247.447 293.704 246.959 292.917C247.314 292.097 246.232 291.393 245.357 291.284C244.489 291.184 243.564 291.134 243.077 290.296C241.83 291.402 239.038 288.32 239.104 287.081C238.08 287.156 237.378 288.136 237.155 289.107C236.923 290.121 237.064 291.167 237.047 292.206C237.014 294.215 236.378 296.191 236.411 298.201C236.436 299.767 237.039 301.508 238.451 302.136C239.129 302.438 239.897 302.438 240.64 302.438C246.009 302.404 251.37 302.371 256.739 302.337C257.127 302.337 257.532 302.329 257.871 302.145C258.598 301.76 258.754 300.797 258.821 299.968C259.11 296.426 259.399 292.875 259.688 289.333C259.201 289.133 258.713 288.932 258.234 288.731L258.242 288.714Z" fill="white"/>
<path d="M259.176 271.465H234.198L234.404 274.027L234.553 275.852L234.933 280.609L235.147 283.338L235.437 286.972L235.56 288.53L235.602 288.99L235.75 290.824L235.949 293.336L236.073 294.894L236.205 296.476L236.353 298.31L236.469 299.7L236.593 301.257L236.642 301.936H259.564L259.614 301.257L259.737 299.708L259.845 298.31L259.993 296.476L260.126 294.902L260.25 293.344L260.448 290.824L260.596 288.999L260.63 288.538L260.753 286.981L261.051 283.347L261.266 280.625L261.637 275.869L261.786 274.044L261.992 271.482H259.184L259.176 271.465ZM260.679 273.14L260.2 272.654H260.72L260.679 273.14ZM260.555 274.697L260.506 275.317L258.267 277.586L255.698 274.982L257.995 272.654H258.531L260.547 274.697H260.555ZM259.911 282.794L258.275 284.452L255.707 281.848L258.275 279.252L260.051 281.052L259.919 282.786L259.911 282.794ZM236.139 281.061L237.915 279.26L240.483 281.856L237.915 284.46L236.279 282.802L236.139 281.069V281.061ZM257.449 278.415L254.881 281.019L252.312 278.415L254.881 275.811L257.449 278.415ZM253.419 272.654H256.351L254.881 274.144L253.41 272.654H253.419ZM254.046 281.856L251.486 284.46L248.917 281.856L251.486 279.26L254.046 281.856ZM245.53 285.298L248.091 282.702L250.651 285.298L248.091 287.902L245.53 285.298ZM247.265 288.739L244.696 291.343L242.135 288.747L244.704 286.143L247.265 288.739ZM251.486 286.143L254.046 288.747L251.486 291.343L248.917 288.739L251.486 286.143ZM248.099 281.019L245.538 278.415L248.099 275.811L250.66 278.415L248.099 281.019ZM247.265 281.856L244.704 284.46L242.135 281.856L244.704 279.26L247.265 281.856ZM241.309 281.019L238.749 278.415L241.309 275.811L243.87 278.415L241.309 281.019ZM241.309 282.702L243.87 285.298L241.309 287.902L238.749 285.298L241.309 282.702ZM243.87 292.181L241.309 294.776L238.749 292.181L241.309 289.585L243.87 292.181ZM244.696 293.018L247.265 295.622L244.704 298.226L242.135 295.622L244.696 293.018ZM245.53 292.181L248.091 289.585L250.651 292.181L248.091 294.776L245.53 292.181ZM251.486 293.018L254.046 295.622L251.486 298.226L248.917 295.622L251.486 293.018ZM254.881 296.459L257.449 299.063L255.789 300.747H253.98L252.32 299.063L254.889 296.459H254.881ZM252.32 292.181L254.889 289.585L257.458 292.181L254.889 294.776L252.32 292.181ZM252.32 285.298L254.889 282.702L257.458 285.298L254.889 287.902L252.32 285.298ZM254.046 274.982L251.486 277.586L248.917 274.982L251.213 272.654H251.75L254.038 274.982H254.046ZM248.099 274.144L246.629 272.654H249.561L248.099 274.144ZM247.265 274.982L244.704 277.586L242.135 274.982L244.432 272.654H244.969L247.257 274.982H247.265ZM242.771 272.654L241.301 274.144L239.839 272.654H242.771ZM238.187 272.654L240.483 274.982L237.915 277.586L235.684 275.317L235.635 274.697L237.642 272.654H238.179H238.187ZM235.99 272.654L235.511 273.14L235.47 272.654H235.99ZM235.833 277.142L237.089 278.415L236.023 279.495L235.833 277.142ZM236.527 285.859L236.428 284.628L237.089 285.298L236.527 285.867V285.859ZM236.651 287.424L237.915 286.143L240.483 288.747L237.915 291.343L236.882 290.297L236.651 287.433V287.424ZM237.031 292.231V292.114L237.08 292.172L237.031 292.222V292.231ZM237.477 297.774L237.155 293.788L237.915 293.018L240.483 295.622L237.915 298.218L237.477 297.774ZM237.716 300.738L237.667 300.144L237.915 299.892L238.749 300.738H237.716ZM238.749 299.055L241.309 296.451L243.87 299.055L242.21 300.738H240.401L238.749 299.055ZM243.87 300.738L244.704 299.892L245.538 300.738H243.87ZM247.19 300.738L245.53 299.055L248.091 296.451L250.651 299.055L248.999 300.738H247.19ZM250.66 300.738L251.494 299.892L252.328 300.738H250.66ZM258.474 300.738H257.441L258.275 299.892L258.523 300.144L258.474 300.738ZM258.713 297.774L258.275 298.218L255.707 295.622L258.275 293.018L259.035 293.788L258.721 297.774H258.713ZM259.167 292.114V292.231L259.101 292.181L259.167 292.114ZM259.316 290.288L258.275 291.335L255.707 288.739L258.275 286.135L259.539 287.416L259.308 290.28L259.316 290.288ZM259.663 285.867L259.101 285.298L259.762 284.628L259.663 285.867ZM260.365 277.142L260.175 279.512L259.101 278.423L260.365 277.142Z" fill="#059456"/>
<g opacity="0.6">
<path d="M259.176 271.465H234.198L234.404 274.027L234.553 275.852L234.933 280.609L235.147 283.338L235.437 286.972L235.56 288.53L235.602 288.99L235.75 290.824L235.949 293.336L236.073 294.894L236.205 296.476L236.353 298.31L236.469 299.7L236.593 301.257L236.642 301.936H259.564L259.614 301.257L259.737 299.708L259.845 298.31L259.993 296.476L260.126 294.902L260.25 293.344L260.448 290.824L260.596 288.999L260.63 288.538L260.753 286.981L261.051 283.347L261.266 280.625L261.637 275.869L261.786 274.044L261.992 271.482H259.184L259.176 271.465ZM260.679 273.14L260.2 272.654H260.72L260.679 273.14ZM260.555 274.697L260.506 275.317L258.267 277.586L255.698 274.982L257.995 272.654H258.531L260.547 274.697H260.555ZM259.911 282.794L258.275 284.452L255.707 281.848L258.275 279.252L260.051 281.052L259.919 282.786L259.911 282.794ZM236.139 281.061L237.915 279.26L240.483 281.856L237.915 284.46L236.279 282.802L236.139 281.069V281.061ZM257.449 278.415L254.881 281.019L252.312 278.415L254.881 275.811L257.449 278.415ZM253.419 272.654H256.351L254.881 274.144L253.41 272.654H253.419ZM254.046 281.856L251.486 284.46L248.917 281.856L251.486 279.26L254.046 281.856ZM245.53 285.298L248.091 282.702L250.651 285.298L248.091 287.902L245.53 285.298ZM247.265 288.739L244.696 291.343L242.135 288.747L244.704 286.143L247.265 288.739ZM251.486 286.143L254.046 288.747L251.486 291.343L248.917 288.739L251.486 286.143ZM248.099 281.019L245.538 278.415L248.099 275.811L250.66 278.415L248.099 281.019ZM247.265 281.856L244.704 284.46L242.135 281.856L244.704 279.26L247.265 281.856ZM241.309 281.019L238.749 278.415L241.309 275.811L243.87 278.415L241.309 281.019ZM241.309 282.702L243.87 285.298L241.309 287.902L238.749 285.298L241.309 282.702ZM243.87 292.181L241.309 294.776L238.749 292.181L241.309 289.585L243.87 292.181ZM244.696 293.018L247.265 295.622L244.704 298.226L242.135 295.622L244.696 293.018ZM245.53 292.181L248.091 289.585L250.651 292.181L248.091 294.776L245.53 292.181ZM251.486 293.018L254.046 295.622L251.486 298.226L248.917 295.622L251.486 293.018ZM254.881 296.459L257.449 299.063L255.789 300.747H253.98L252.32 299.063L254.889 296.459H254.881ZM252.32 292.181L254.889 289.585L257.458 292.181L254.889 294.776L252.32 292.181ZM252.32 285.298L254.889 282.702L257.458 285.298L254.889 287.902L252.32 285.298ZM254.046 274.982L251.486 277.586L248.917 274.982L251.213 272.654H251.75L254.038 274.982H254.046ZM248.099 274.144L246.629 272.654H249.561L248.099 274.144ZM247.265 274.982L244.704 277.586L242.135 274.982L244.432 272.654H244.969L247.257 274.982H247.265ZM242.771 272.654L241.301 274.144L239.839 272.654H242.771ZM238.187 272.654L240.483 274.982L237.915 277.586L235.684 275.317L235.635 274.697L237.642 272.654H238.179H238.187ZM235.99 272.654L235.511 273.14L235.47 272.654H235.99ZM235.833 277.142L237.089 278.415L236.023 279.495L235.833 277.142ZM236.527 285.859L236.428 284.628L237.089 285.298L236.527 285.867V285.859ZM236.651 287.424L237.915 286.143L240.483 288.747L237.915 291.343L236.882 290.297L236.651 287.433V287.424ZM237.031 292.231V292.114L237.08 292.172L237.031 292.222V292.231ZM237.477 297.774L237.155 293.788L237.915 293.018L240.483 295.622L237.915 298.218L237.477 297.774ZM237.716 300.738L237.667 300.144L237.915 299.892L238.749 300.738H237.716ZM238.749 299.055L241.309 296.451L243.87 299.055L242.21 300.738H240.401L238.749 299.055ZM243.87 300.738L244.704 299.892L245.538 300.738H243.87ZM247.19 300.738L245.53 299.055L248.091 296.451L250.651 299.055L248.999 300.738H247.19ZM250.66 300.738L251.494 299.892L252.328 300.738H250.66ZM258.474 300.738H257.441L258.275 299.892L258.523 300.144L258.474 300.738ZM258.713 297.774L258.275 298.218L255.707 295.622L258.275 293.018L259.035 293.788L258.721 297.774H258.713ZM259.167 292.114V292.231L259.101 292.181L259.167 292.114ZM259.316 290.288L258.275 291.335L255.707 288.739L258.275 286.135L259.539 287.416L259.308 290.28L259.316 290.288ZM259.663 285.867L259.101 285.298L259.762 284.628L259.663 285.867ZM260.365 277.142L260.175 279.512L259.101 278.423L260.365 277.142Z" fill="white"/>
</g>
<path d="M233.95 273.717H262.232C262.98 273.717 263.587 273.102 263.587 272.344V271.775C263.587 271.016 262.98 270.401 262.232 270.401H233.95C233.202 270.401 232.595 271.016 232.595 271.775V272.344C232.595 273.102 233.202 273.717 233.95 273.717Z" fill="#059456"/>
<path d="M260.002 300.152H236.188C235.44 300.152 234.833 300.767 234.833 301.525V302.094C234.833 302.853 235.44 303.468 236.188 303.468H260.002C260.75 303.468 261.356 302.853 261.356 302.094V301.525C261.356 300.767 260.75 300.152 260.002 300.152Z" fill="#059456"/>
<path d="M342.701 32.2876H137.803C135.919 32.2876 134.392 33.8359 134.392 35.7458V185.587C134.392 187.497 135.919 189.045 137.803 189.045H342.701C344.585 189.045 346.112 187.497 346.112 185.587V35.7458C346.112 33.8359 344.585 32.2876 342.701 32.2876Z" fill="#059456"/>
<path opacity="0.4" d="M346.112 40.7612H134.392V182.254H346.112V40.7612Z" fill="black"/>
<path d="M341.156 38.4251C342.256 38.4251 343.147 37.5216 343.147 36.4071C343.147 35.2926 342.256 34.3892 341.156 34.3892C340.057 34.3892 339.166 35.2926 339.166 36.4071C339.166 37.5216 340.057 38.4251 341.156 38.4251Z" fill="white"/>
<path d="M334.441 38.4251C335.54 38.4251 336.432 37.5216 336.432 36.4071C336.432 35.2926 335.54 34.3892 334.441 34.3892C333.342 34.3892 332.45 35.2926 332.45 36.4071C332.45 37.5216 333.342 38.4251 334.441 38.4251Z" fill="white"/>
<path d="M327.726 38.4251C328.825 38.4251 329.716 37.5216 329.716 36.4071C329.716 35.2926 328.825 34.3892 327.726 34.3892C326.626 34.3892 325.735 35.2926 325.735 36.4071C325.735 37.5216 326.626 38.4251 327.726 38.4251Z" fill="white"/>
<path d="M203.974 114.296H135.177V175.405H203.974V114.296Z" fill="#263238"/>
<path d="M203.974 51.8394H135.177V112.948H203.974V51.8394Z" fill="#263238"/>
<path d="M274.35 51.8394H205.552V112.948H274.35V51.8394Z" fill="#059456"/>
<path d="M344.733 51.8394H275.935V112.948H344.733V51.8394Z" fill="white"/>
<path d="M274.35 114.296H205.552V175.405H274.35V114.296Z" fill="#263238"/>
<path d="M344.733 114.296H275.935V175.405H344.733V114.296Z" fill="#059456"/>
<path d="M332.946 112.948L334.507 99.6092C334.92 96.0505 332.632 92.7096 329.179 91.9308C311.321 87.9033 300.666 91.889 300.666 91.889C296.057 99.5004 293.224 106.735 291.489 112.94H332.946V112.948Z" fill="#263238"/>
<path d="M320.077 91.3618C321.382 91.0687 324.686 91.2697 324.686 91.2697C320.804 87.979 322.728 79.6223 324.306 75.084L312.304 81.9669C312.436 82.553 312.552 83.1475 312.602 83.7253C312.717 84.839 312.651 85.9191 312.238 86.8821C311.883 87.7027 310.355 89.5615 309.388 90.1393L314.187 92.3164L320.077 91.3618Z" fill="#E4897B"/>
<path opacity="0.2" d="M321.531 79.4551C321.052 85.0317 315.137 86.5641 312.238 86.8823C312.651 85.9193 312.717 84.8392 312.602 83.7255L321.531 79.4551Z" fill="black"/>
<path d="M305.746 62.5822C305.746 62.5822 304.796 70.5118 309.339 73.8444C313.882 77.177 312.907 57.7759 312.907 57.7759L305.746 62.5822Z" fill="#263238"/>
<path d="M323.356 79.329C323.133 79.7979 322.86 80.2752 322.538 80.7357C320.482 83.725 317.227 84.6628 314.27 83.9678C314.047 83.9092 313.832 83.859 313.626 83.7836C311.685 83.164 309.925 81.8326 308.81 79.9067C308.769 79.8397 308.728 79.7728 308.694 79.7058C308.546 79.4378 308.414 79.1615 308.281 78.8768C308.034 78.2907 307.811 77.6627 307.612 76.9928C305.969 71.6004 306.159 62.599 311.09 59.5092C315.013 57.0056 321.217 57.8429 323.686 61.8286C324.397 62.959 323.596 65.9148 323.728 67.2462C324.322 72.6554 324.917 76.0969 323.373 79.3122L323.356 79.329Z" fill="#E4897B"/>
<path d="M314.799 70.5791C314.914 71.0732 314.691 71.5253 314.369 71.5839C314.039 71.6425 313.717 71.2741 313.634 70.7801C313.543 70.2861 313.75 69.8255 314.063 69.7753C314.386 69.725 314.716 70.0767 314.799 70.5791Z" fill="#263238"/>
<path d="M309.215 71.5421C309.331 72.0362 309.099 72.4967 308.785 72.5469C308.463 72.5972 308.133 72.2371 308.05 71.7431C307.968 71.2491 308.166 70.7885 308.48 70.7383C308.802 70.6881 309.141 71.0732 309.215 71.5421Z" fill="#263238"/>
<path d="M311.032 71.4834C310.702 73.1162 310.148 74.6904 309.397 76.1725C310.165 76.5493 311.065 76.566 311.842 76.2143L311.032 71.4834Z" fill="#DE5753"/>
<path d="M316.219 68.444C316.112 68.4775 315.996 68.4524 315.922 68.377C315.385 67.8411 314.642 67.5983 313.898 67.7155C313.741 67.7574 313.584 67.6569 313.543 67.4978C313.502 67.3387 313.601 67.1796 313.758 67.1377C314.691 66.9703 315.641 67.2717 316.318 67.9416C316.442 68.0504 316.451 68.2346 316.343 68.3602C316.31 68.3937 316.269 68.4189 316.228 68.4356L316.219 68.444Z" fill="#263238"/>
<path d="M306.489 70.0095C306.439 70.043 306.382 70.0598 306.324 70.0514C306.167 70.0095 306.076 69.842 306.117 69.6913C306.365 68.7619 307.034 68.0083 307.926 67.6817C308.083 67.6315 308.24 67.7236 308.29 67.8827C308.331 68.0418 308.248 68.2009 308.091 68.2511C307.398 68.5358 306.877 69.1303 306.687 69.8672C306.646 69.9425 306.572 70.0011 306.489 70.0263V70.0095Z" fill="#263238"/>
<path d="M326.032 63.4532C326.065 63.2858 326.098 63.1183 326.123 62.9341C326.982 56.9974 318.367 53.5057 310.611 54.2425C307.233 54.5607 308.017 60.4221 308.017 60.4221C308.017 60.4221 306.101 60.4221 305.234 61.6111C303.705 63.6961 306.051 68.2847 306.051 68.2847C304.87 61.6111 308.298 61.2176 308.298 61.2176C308.298 61.2176 309.091 63.8133 310.652 63.5705C312.213 63.336 316.038 59.5429 317.937 60.0034C319.49 60.3802 320.209 61.4269 320.531 62.3731C320.614 63.2355 320.374 64.3324 319.276 65.5801C317.648 67.4306 320.399 71.3828 322.307 72.5886C322.307 72.5886 322.241 71.5838 323.1 71.7178C323.959 71.8517 324.347 77.06 323.034 79.7227C323.034 79.7227 325.206 77.1856 325.933 71.5838C326.346 68.3935 326.371 65.5801 326.032 63.4532Z" fill="#263238"/>
<path d="M313.081 78.6594C314.551 78.6343 315.914 77.8807 316.74 76.6414C316.781 76.5661 316.756 76.4739 316.682 76.4237C316.616 76.3818 316.517 76.3986 316.475 76.4656C316.475 76.4656 316.475 76.4656 316.475 76.4739C315.691 77.6044 314.427 78.291 313.072 78.3328C312.99 78.3328 312.924 78.3998 312.924 78.4836C312.924 78.4836 312.924 78.4919 312.924 78.5003C312.924 78.584 312.99 78.651 313.072 78.651C313.072 78.651 313.081 78.651 313.089 78.651L313.081 78.6594Z" fill="#263238"/>
<path d="M327.205 71.8431C326.767 73.3504 325.76 74.6231 324.397 75.3767C322.588 76.3648 321.242 74.8324 321.357 72.8563C321.481 71.1063 322.555 68.4352 324.554 68.2845C326.553 68.1337 327.717 69.9926 327.197 71.8431H327.205Z" fill="#E4897B"/>
<path opacity="0.1" d="M314.262 83.9764C314.039 83.9178 313.824 83.8675 313.617 83.7922C311.676 83.1725 309.917 81.8412 308.802 79.9153C310.231 79.7562 313.238 79.4548 313.84 79.7143C314.468 79.9906 314.353 82.7371 314.27 83.9764H314.262Z" fill="black"/>
<path d="M305.201 112.948H309.223L313.601 96.5869L317.582 92.3081H310.619L312.238 96.4278L305.201 112.948Z" fill="#059456"/>
<path d="M290.39 109.892L290.134 112.948H296.676C302.268 99.4835 307.456 89.7285 307.456 89.7285L300.666 91.8888C285.005 96.5444 283.642 106.986 286.327 109.624C289.011 112.261 290.39 109.892 290.39 109.892Z" fill="#059456"/>
<path opacity="0.5" d="M290.39 109.892L290.134 112.948H296.676C302.268 99.4835 307.456 89.7285 307.456 89.7285L300.666 91.8888C285.005 96.5444 283.642 106.986 286.327 109.624C289.011 112.261 290.39 109.892 290.39 109.892Z" fill="white"/>
<path d="M295.239 112.948H296.759C301.913 101.837 310.322 88.8244 310.322 88.8244C304.994 88.6653 300.187 90.8005 300.187 90.8005L301.93 95.724L297.725 96.5865L295.231 112.948H295.239Z" fill="#059456"/>
<path opacity="0.4" d="M295.239 112.948H296.759C301.913 101.837 310.322 88.8244 310.322 88.8244C304.994 88.6653 300.187 90.8005 300.187 90.8005L301.93 95.724L297.725 96.5865L295.231 112.948H295.239Z" fill="white"/>
<path opacity="0.2" d="M293.504 112.948C294.991 109.456 294.859 106.936 294.859 106.936L290.39 109.892L290.134 112.948H293.513H293.504Z" fill="black"/>
<path d="M308.116 90.4156L311.329 87.4766L314.196 91.4372L323.282 87.4766L325.561 91.2111L316.756 95.6322L313.832 92.7853L310.619 94.8451L308.116 90.4156Z" fill="#263238"/>
<path opacity="0.2" d="M308.116 90.4156L311.329 87.4766L314.196 91.4372L323.282 87.4766L325.561 91.2111L316.756 95.6322L313.832 92.7853L310.619 94.8451L308.116 90.4156Z" fill="white"/>
<path d="M297.758 100.254L307.456 89.7288C307.456 89.7288 309.413 89.7706 310.85 88.3974C312.288 87.0242 314.245 80.9367 313.766 80.5515C313.295 80.158 307.505 79.6723 306.96 80.359C306.407 81.0456 304.019 87.1916 304.019 87.1916L293.628 95.431L297.767 100.254H297.758Z" fill="#E4897B"/>
<path d="M298.824 91.0603L300.74 89.3438L305.333 92.9527L303.251 95.7494L298.824 91.0603Z" fill="#263238"/>
<path opacity="0.2" d="M298.824 91.0603L300.74 89.3438L305.333 92.9527L303.251 95.7494L298.824 91.0603Z" fill="white"/>
<path d="M299.344 89.9634L304.845 94.3761C304.845 94.3761 292.059 114.908 287.4 110.57C282.742 106.233 285.137 99.442 299.344 89.9634Z" fill="#059456"/>
<path opacity="0.6" d="M299.344 89.9634L304.845 94.3761C304.845 94.3761 292.059 114.908 287.4 110.57C282.742 106.233 285.137 99.442 299.344 89.9634Z" fill="white"/>
<path d="M334.614 112.948L335.424 98.228C335.564 95.2973 333.822 92.6178 331.112 91.5795L323.885 88.8247C323.885 88.8247 324.199 99.8775 325.033 112.948H334.614Z" fill="#059456"/>
<path opacity="0.5" d="M334.614 112.948L335.424 98.228C335.564 95.2973 333.822 92.6178 331.112 91.5795L323.885 88.8247C323.885 88.8247 324.199 99.8775 325.033 112.948H334.614Z" fill="white"/>
<path d="M327.998 112.948L330.666 105.354L326.693 101.661L331.277 100.262C328.362 91.1606 323.637 88.0625 323.637 88.0625C322.464 93.882 323.62 105.487 324.57 112.957H327.99L327.998 112.948Z" fill="#059456"/>
<path opacity="0.4" d="M327.998 112.948L330.666 105.354L326.693 101.661L331.277 100.262C328.362 91.1606 323.637 88.0625 323.637 88.0625C322.464 93.882 323.62 105.487 324.57 112.957H327.99L327.998 112.948Z" fill="white"/>
<path d="M291.539 111.148C292.348 111.466 298.849 111.91 298.849 111.91L300.352 112.948H310.908L300.187 107.816C300.187 107.816 299.633 105.915 297.899 104.944C296.164 103.972 289.862 103.947 289.639 104.516C289.416 105.094 290.721 110.83 291.53 111.148H291.539Z" fill="#E4897B"/>
<path d="M307.596 112.948L308.571 111.173L304.556 109.39L303.136 112.948H307.596Z" fill="#263238"/>
<path opacity="0.2" d="M307.596 112.948L308.571 111.173L304.556 109.39L303.136 112.948H307.596Z" fill="white"/>
<path d="M329.427 112.948C334.218 105.354 337.588 96.101 333.673 93.4215C333.673 93.4215 330.666 92.5507 318.251 111.784C318.251 111.784 316.88 114.748 306.671 110.101L305.341 112.948H329.427Z" fill="#059456"/>
<path opacity="0.6" d="M329.427 112.948C334.218 105.354 337.588 96.101 333.673 93.4215C333.673 93.4215 330.666 92.5507 318.251 111.784C318.251 111.784 316.88 114.748 306.671 110.101L305.341 112.948H329.427Z" fill="white"/>
<path opacity="0.3" d="M274.35 114.296H205.552V175.405H274.35V114.296Z" fill="white"/>
<path d="M147.013 112.948C148.674 108.586 158.371 100.087 158.371 100.087V91.3364C153.407 92.2742 141.281 102.858 140.967 112.948H147.013Z" fill="#059456"/>
<path opacity="0.6" d="M147.013 112.948C147.798 110.871 150.4 107.865 152.911 105.278C155.695 102.431 158.371 100.087 158.371 100.087V91.3364C153.407 92.2659 141.273 102.858 140.967 112.948H147.013Z" fill="white"/>
<path opacity="0.2" d="M152.911 105.278C155.695 102.431 158.371 100.087 158.371 100.087V97.541C158.371 97.541 153.588 99.9442 152.911 105.278Z" fill="black"/>
<path d="M193.327 112.948C194.558 105.228 195.772 98.8554 196.334 95.9833C196.515 95.0622 195.946 94.1579 195.037 93.957C193.261 93.5634 191.436 93.2285 189.585 92.9438C180.301 91.4868 170.521 91.2189 164.434 91.2272C160.708 91.2272 158.371 91.3361 158.371 91.3361C156.669 97.5156 155.653 105.202 155.075 112.948H193.327Z" fill="#059456"/>
<path opacity="0.7" d="M193.335 112.948C193.368 112.73 193.401 112.512 193.435 112.303C194.624 104.876 195.789 98.78 196.334 95.9833C196.367 95.8326 196.375 95.6819 196.359 95.5228C196.317 94.7775 195.797 94.1244 195.037 93.957C193.261 93.5634 191.436 93.2285 189.585 92.9438C180.301 91.4868 170.521 91.2189 164.434 91.2272C160.708 91.2272 158.371 91.3361 158.371 91.3361C156.669 97.5156 155.653 105.202 155.075 112.948H193.335Z" fill="white"/>
<path d="M171.802 101.166C182.564 102.322 189.734 93.0443 189.734 93.0443L189.594 92.9355C180.309 91.4785 170.53 91.2106 164.442 91.2189C164.442 91.2189 161.7 100.078 171.802 101.166Z" fill="#059456"/>
<path d="M183.696 92.0899C180.673 94.8783 173.255 93.8483 173.255 93.8483C173.255 93.8483 168.63 92.5672 169.604 91.1019C172.33 90.6413 173.652 89.3602 174.197 87.7107C174.511 86.7477 174.56 85.6676 174.47 84.5539C174.428 83.9678 174.346 83.3733 174.238 82.7955L183.399 75.9126C182.201 80.451 180.731 88.8076 183.688 92.0983L183.696 92.0899Z" fill="#E4897B"/>
<path opacity="0.2" d="M181.292 80.2837C180.929 85.8604 176.411 87.3927 174.197 87.7109C174.511 86.7479 174.56 85.6678 174.47 84.5541L181.284 80.2837H181.292Z" fill="black"/>
<path d="M182.35 88.5562L173.594 92.5586L173.082 89.3516L169.861 90.4988C168.704 90.9091 167.977 92.073 168.109 93.3122L168.473 96.8374L172.917 94.3756L175.13 97.5491L185.654 92.4079L182.358 88.5645L182.35 88.5562Z" fill="#059456"/>
<path opacity="0.3" d="M182.35 88.5562L173.594 92.5586L173.082 89.3516L169.861 90.4988C168.704 90.9091 167.977 92.073 168.109 93.3122L168.473 96.8374L172.917 94.3756L175.13 97.5491L185.654 92.4079L182.358 88.5645L182.35 88.5562Z" fill="white"/>
<path d="M167.308 61.9292C167.308 61.9292 164.822 70.6208 169.018 74.6567C173.214 78.6927 175.37 62.1804 175.37 62.1804L167.308 61.9292Z" fill="#263238"/>
<path opacity="0.2" d="M167.308 61.9292C167.308 61.9292 164.822 70.6208 169.018 74.6567C173.214 78.6927 175.37 62.1804 175.37 62.1804L167.308 61.9292Z" fill="white"/>
<path d="M167.242 79.6554C167.333 79.9652 167.432 80.275 167.548 80.5681C167.969 81.6483 168.58 82.6028 169.324 83.4067C170.108 84.2608 171.042 84.939 172.049 85.4163C173.891 86.2871 175.989 86.5048 177.955 85.8852C179.26 85.4749 180.508 84.7045 181.573 83.5155C184.662 80.1159 184.439 76.3228 184.572 69.8921C184.621 68.5105 184.357 67.1288 183.779 65.8812C181.78 61.4601 176.625 59.5342 172.281 61.5606C166.168 64.3573 165.656 73.9364 167.234 79.6554H167.242Z" fill="#E4897B"/>
<path d="M175.031 72.0526C175.089 72.5718 174.8 73.0072 174.453 73.0239C174.114 73.0407 173.825 72.622 173.809 72.0945C173.784 71.5753 174.048 71.1399 174.387 71.1232C174.726 71.1148 175.015 71.5167 175.031 72.0526Z" fill="#263238"/>
<path d="M169.191 72.2787C169.249 72.7978 168.952 73.2333 168.613 73.25C168.275 73.2667 167.985 72.8481 167.969 72.3206C167.944 71.8014 168.208 71.366 168.547 71.3492C168.886 71.3409 169.175 71.7763 169.191 72.2787Z" fill="#263238"/>
<path d="M171.058 72.4629C170.505 74.0873 169.728 75.628 168.762 77.0347C169.497 77.5288 170.414 77.6627 171.256 77.4115L171.058 72.4629Z" fill="#DE5753"/>
<path d="M166.936 69.8337C167.036 69.884 167.159 69.8756 167.25 69.817C167.878 69.3648 168.679 69.2392 169.414 69.4737C169.571 69.5407 169.745 69.4737 169.811 69.3146C169.877 69.1555 169.811 68.9797 169.654 68.9127C168.737 68.5861 167.713 68.7368 166.92 69.3062C166.779 69.3983 166.738 69.5825 166.829 69.7249C166.862 69.7668 166.895 69.8003 166.936 69.8254V69.8337Z" fill="#263238"/>
<path d="M176.097 69.6492C176.155 69.6492 176.212 69.6241 176.262 69.5823C176.369 69.4483 176.345 69.2557 176.221 69.1552C175.469 68.5188 174.453 68.3011 173.511 68.5607C173.354 68.6109 173.272 68.7868 173.321 68.9459C173.379 69.105 173.544 69.1887 173.701 69.1385C174.453 68.9543 175.246 69.1385 175.841 69.6409C175.923 69.6827 176.014 69.6827 176.097 69.6492Z" fill="#263238"/>
<path d="M179.632 62.0547L179.26 64.8849C180.169 65.3873 180.714 66.4423 180.285 67.556C179.359 69.934 180.656 73.6434 182.449 75.1339C182.449 75.1339 182.515 74.104 183.374 74.3552C184.233 74.6064 183.944 79.9821 182.242 82.5359C182.242 82.5359 184.803 80.2416 186.29 74.6064C187.669 69.3981 187.876 65.044 186.835 63.0176L179.64 62.0547H179.632Z" fill="#263238"/>
<path d="M174.891 78.6172C174.891 78.6172 173.247 78.9605 172.173 80.5766" stroke="#263238" stroke-width="0.5" stroke-linecap="round" stroke-linejoin="round"/>
<path opacity="0.1" d="M169.332 83.3984C170.116 84.2525 171.05 84.9308 172.058 85.408C173.9 86.2789 175.998 86.4966 177.963 85.877C177.501 85.3829 176.601 84.7717 174.891 84.286C173.016 83.7417 170.926 83.4989 169.332 83.3984Z" fill="black"/>
<path opacity="0.2" d="M179.632 62.0547L179.26 64.8849C180.169 65.3873 180.714 66.4423 180.285 67.556C179.359 69.934 180.656 73.6434 182.449 75.1339C182.449 75.1339 182.515 74.104 183.374 74.3552C184.233 74.6064 183.944 79.9821 182.242 82.5359C182.242 82.5359 184.803 80.2416 186.29 74.6064C187.669 69.3981 187.876 65.044 186.835 63.0176L179.64 62.0547H179.632Z" fill="white"/>
<path d="M187.264 64.3155C187.264 64.3155 187.95 60.5977 182.176 57.6921C176.402 54.7782 170.075 58.1024 166.218 55.6072C162.36 53.1035 162.22 63.386 170.472 64.5499C178.715 65.7055 187.264 64.3239 187.264 64.3239V64.3155Z" fill="#263238"/>
<path opacity="0.3" d="M187.264 64.3155C187.264 64.3155 187.95 60.5977 182.176 57.6921C176.402 54.7782 170.075 58.1024 166.218 55.6072C162.36 53.1035 162.22 63.386 170.472 64.5499C178.715 65.7055 187.264 64.3239 187.264 64.3239V64.3155Z" fill="white"/>
<path d="M187.545 75.0503C186.893 76.5323 185.695 77.6879 184.2 78.274C182.217 79.036 181.044 77.2776 181.433 75.2847C181.796 73.5179 183.25 70.9306 185.315 71.0478C187.38 71.165 188.322 73.2249 187.545 75.0503Z" fill="#E4897B"/>
<path d="M177.741 95.7826L176.865 91.06C176.865 91.06 178.674 89.3184 178.467 87.7023C178.261 86.0863 170.183 83.4235 168.754 83.323C167.325 83.2226 167.862 89.109 168.299 90.1892C168.737 91.2694 173.586 92.5589 173.586 92.5589L174.189 97.541L177.732 95.7826H177.741Z" fill="#E4897B"/>
<path opacity="0.2" d="M192.245 112.948C192.658 112.739 193.063 112.521 193.435 112.303C194.624 104.876 195.789 98.7802 196.334 95.9835C196.367 95.8328 196.375 95.682 196.359 95.5229C191.138 100.907 183.002 109.925 183.985 112.948H192.245Z" fill="black"/>
<path d="M189.412 112.948C195.417 107.488 200.637 99.9607 196.945 94.8697C193.707 90.3983 185.34 106.601 182.845 107.714C180.342 108.82 178.112 93.9653 178.112 93.9653L173.156 95.4642C173.156 95.4642 174.065 106.165 176.609 112.948H189.404H189.412Z" fill="#059456"/>
<path opacity="0.6" d="M189.412 112.948C195.417 107.488 200.637 99.9607 196.945 94.8697C193.707 90.3983 185.34 106.601 182.845 107.714C180.342 108.82 178.112 93.9653 178.112 93.9653L173.156 95.4642C173.156 95.4642 174.065 106.165 176.609 112.948H189.404H189.412Z" fill="white"/>
<path d="M226.846 112.948C228.597 111.164 229.721 109.9 229.721 109.9L228.771 95.0625C226.012 96.5446 217.744 107.74 213.399 112.948H226.846Z" fill="#059456"/>
<path opacity="0.5" d="M226.846 112.948C228.597 111.164 229.721 109.9 229.721 109.9L228.771 95.0625C226.012 96.5446 217.744 107.74 213.399 112.948H226.846Z" fill="white"/>
<path opacity="0.2" d="M226.838 112.948C228.589 111.165 229.712 109.909 229.712 109.909L229.489 106.384L228.391 102.967C228.391 102.967 224.401 106.719 224.509 112.948H226.83H226.838Z" fill="black"/>
<path d="M255.797 112.948C256.202 111.475 256.657 109.9 257.185 108.201C257.697 106.551 258.251 104.776 258.887 102.858C259.358 101.41 259.87 99.8692 260.431 98.2447C257.07 97.1562 253.658 96.3189 250.181 95.7327C246.522 95.0712 242.813 94.6777 239.096 94.5521C234.297 94.5102 228.771 95.0628 228.771 95.0628C228.771 95.0628 227.986 95.2554 227.49 100.413C227.251 103.026 227.011 107.037 226.995 112.94H255.806L255.797 112.948Z" fill="#059456"/>
<path opacity="0.5" d="M255.797 112.948C256.202 111.475 256.657 109.9 257.185 108.201C257.697 106.551 258.251 104.776 258.887 102.858C259.358 101.41 259.87 99.8692 260.431 98.2447C257.07 97.1562 253.658 96.3189 250.181 95.7327C246.522 95.0712 242.813 94.6777 239.096 94.5521C234.297 94.5102 228.771 95.0628 228.771 95.0628C228.771 95.0628 227.986 95.2554 227.49 100.413C227.251 103.026 227.011 107.037 226.995 112.94H255.806L255.797 112.948Z" fill="white"/>
<path d="M240.45 112.948L247.224 100.656L239.393 105.094L234.85 99.3247L236.51 112.948H240.45Z" fill="#263238"/>
<path d="M247.488 94.1837C251.957 95.2471 253.311 98.8895 252.824 102.189L249.57 101.083C249.57 101.083 243.548 103.185 239.104 106.886C239.104 106.886 236.634 102.281 234.264 100.782L230.91 101.184C230.91 101.184 236.147 91.4707 247.496 94.1753L247.488 94.1837Z" fill="#263238"/>
<path opacity="0.1" d="M247.488 94.1837C251.957 95.2471 253.311 98.8895 252.824 102.189L249.57 101.083C249.57 101.083 243.548 103.185 239.104 106.886C239.104 106.886 236.634 102.281 234.264 100.782L230.91 101.184C230.91 101.184 236.147 91.4707 247.496 94.1753L247.488 94.1837Z" fill="white"/>
<path d="M239.368 95.6322C239.583 95.515 239.847 95.4062 240.12 95.3057C240.69 94.8535 241.384 93.7482 241.351 91.0855C241.343 90.2147 241.26 89.1848 241.062 87.9622L248.388 86.5723C248.388 86.5723 245.894 91.5712 247.975 95.2806C248.694 95.6071 249.123 96.0593 249.041 96.6622C248.496 100.949 239.393 105.103 239.393 105.103C239.393 105.103 234.949 98.094 239.368 95.6322Z" fill="#EEC1BB"/>
<path opacity="0.2" d="M241.062 87.9539C241.252 89.1848 241.334 90.2064 241.351 91.0772C246.298 91.0772 248.388 86.564 248.388 86.564L241.062 87.9539Z" fill="black"/>
<path d="M244.333 63.4531C244.333 63.4531 235.742 62.3562 234.165 69.3563C232.587 76.3648 237.915 80.2668 237.915 80.2668L244.333 63.4531Z" fill="#263238"/>
<path d="M245.109 67.1961C238.741 66.8444 236.502 70.1854 235.676 76.8087C234.644 85.0899 236.147 91.0936 244.2 89.7623C255.145 87.9536 255.682 67.7822 245.109 67.1961Z" fill="#EEC1BB"/>
<path d="M239.814 76.6749C239.814 76.6749 238.84 78.3077 237.815 79.2455C237.815 79.2455 238.311 80.1498 239.451 80.0661L239.806 76.6665L239.814 76.6749Z" fill="#D4827D"/>
<path d="M243.746 76.365C243.705 76.8925 243.953 77.3447 244.3 77.3698C244.647 77.3949 244.96 76.993 245.002 76.4571C245.043 75.9296 244.795 75.4774 244.448 75.4523C244.101 75.4272 243.787 75.8291 243.746 76.365Z" fill="#263238"/>
<path d="M244.589 75.494L243.49 74.9497C243.49 74.9497 243.977 75.9629 244.589 75.494Z" fill="#263238"/>
<path d="M237.254 75.7371C237.212 76.2646 237.46 76.7167 237.807 76.7419C238.154 76.767 238.468 76.3651 238.509 75.8292C238.551 75.3016 238.303 74.8495 237.956 74.8244C237.609 74.7992 237.295 75.2012 237.254 75.7371Z" fill="#263238"/>
<path d="M238.105 74.866L237.006 74.3218C237.006 74.3218 237.493 75.335 238.105 74.866Z" fill="#263238"/>
<path d="M244.043 71.9103C244.043 71.9103 245.844 71.7764 246.753 73.0408" stroke="#263238" stroke-width="0.69" stroke-linecap="round" stroke-linejoin="round"/>
<path d="M239.434 71.3828C239.434 71.3828 238.336 70.8972 236.866 71.7764" stroke="#263238" stroke-width="0.69" stroke-linecap="round" stroke-linejoin="round"/>
<path d="M251.477 78.4582C251.477 78.4582 248.785 72.9903 249.462 68.9209C249.462 68.9209 237.13 62.9925 235.8 75.9461C235.8 75.9461 235.189 64.349 246.15 64.7007C257.094 65.0524 256.186 81.28 250.271 85.8016C250.271 85.8016 253.138 81.8745 251.477 78.4582Z" fill="#263238"/>
<path d="M243.242 62.9509C243.242 62.9509 238.005 61.6531 236.527 63.0514C235.048 64.4498 245.613 74.3638 251.139 75.3603C251.139 75.3603 253.014 81.5649 251.535 84.4705C251.535 84.4705 257.755 82.2683 258.052 72.6557C258.35 63.043 248.372 59.4425 243.242 62.9426V62.9509Z" fill="#263238"/>
<path d="M250.371 79.7646C250.47 78.7263 251.626 77.0265 253.518 77.3447C255.475 77.6713 256.194 81.8328 251.238 82.5446C250.528 82.6451 250.164 81.925 250.371 79.7646Z" fill="#EEC1BB"/>
<path d="M253.121 66.7608C253.121 66.7608 255.294 61.159 261.117 61.5525C266.94 61.9544 267.832 71.1651 264.768 77.9727C261.703 84.7802 263.777 86.9824 263.777 86.9824C263.777 86.9824 260.522 86.5805 260.522 80.4763C260.522 80.4763 260.225 82.4776 260.324 84.3783C260.324 84.3783 258.152 81.2718 260.225 75.3686C262.298 69.4654 255.682 72.1616 255.682 72.1616L253.113 66.7524L253.121 66.7608Z" fill="#263238"/>
<path d="M237.022 63.5537C237.022 63.5537 239.79 72.5635 247.191 75.268" stroke="#263238" stroke-width="0.69" stroke-linecap="round" stroke-linejoin="round"/>
<path d="M244.432 82.377C244.432 82.377 242.953 83.9763 240.781 83.8758" stroke="#263238" stroke-width="0.69" stroke-linecap="round" stroke-linejoin="round"/>
<path d="M240.483 77.2693C240.483 78.1234 241.111 78.8184 241.888 78.8184C242.664 78.8184 243.292 78.1234 243.292 77.2693C243.292 76.4152 242.664 75.7202 241.888 75.7202C241.111 75.7202 240.483 76.4152 240.483 77.2693Z" stroke="#263238" stroke-width="0.5" stroke-linecap="round" stroke-linejoin="round"/>
<path d="M235.494 77.0183C235.494 77.8724 236.122 78.5674 236.899 78.5674C237.675 78.5674 238.303 77.8724 238.303 77.0183C238.303 76.1642 237.675 75.4692 236.899 75.4692C236.122 75.4692 235.494 76.1642 235.494 77.0183Z" stroke="#263238" stroke-width="0.5" stroke-linecap="round" stroke-linejoin="round"/>
<path d="M240.483 77.2695C240.483 77.2695 239.74 75.6702 238.311 77.0183" stroke="#263238" stroke-width="0.5" stroke-linecap="round" stroke-linejoin="round"/>
<path d="M243.292 77.2691C243.292 77.2691 251.188 77.0179 252.13 77.0682" stroke="#263238" stroke-width="0.5" stroke-linecap="round" stroke-linejoin="round"/>
<path d="M266.511 112.948C263.504 104.943 260.423 98.2529 260.423 98.2529C260.423 98.2529 255.393 105.672 254.938 112.948H266.511Z" fill="#059456"/>
<path opacity="0.5" d="M266.511 112.948C263.504 104.943 260.423 98.2529 260.423 98.2529C260.423 98.2529 255.393 105.672 254.938 112.948H266.511Z" fill="white"/>
<path d="M268.394 175.405C266.709 170.816 265.107 166.931 265.107 166.931L258.201 173.06C258.201 173.06 258.68 173.99 259.407 175.405H268.402H268.394Z" fill="#E4897B"/>
<path d="M219.635 175.405C221.279 173.387 222.444 171.888 222.444 171.888L215.704 166.211C215.704 166.211 212.424 171.377 209.698 175.405H219.635Z" fill="#E4897B"/>
<path d="M221.287 175.405L225.293 172.558L223.732 153.651C218.628 154.53 211.21 169.569 211.21 169.569L217 175.397H221.279L221.287 175.405Z" fill="#059456"/>
<path opacity="0.2" d="M217.009 175.405H221.287L224.162 173.362L225.293 172.558L223.741 153.651C218.636 154.53 211.218 169.577 211.218 169.577L216.323 174.718L217.009 175.413V175.405Z" fill="white"/>
<path d="M218.264 175.405L211.218 167.911L210.004 169.979L215.646 175.405H218.264Z" fill="#059456"/>
<path opacity="0.2" d="M221.287 175.405L224.162 173.362L222.799 165.164C222.799 165.164 217.463 168.58 216.323 174.71L217.009 175.405H221.287Z" fill="black"/>
<path d="M258.631 175.405C260.332 164.754 261.993 156.649 261.993 156.649C245.646 152.655 223.691 153.651 223.691 153.651C221.973 159.864 220.965 167.609 220.387 175.405H258.631Z" fill="#059456"/>
<path opacity="0.2" d="M258.631 175.405C258.747 174.66 258.871 173.923 258.986 173.211C260.556 163.665 261.993 156.649 261.993 156.649C245.646 152.655 223.7 153.651 223.7 153.651C221.981 159.864 220.974 167.609 220.396 175.405H258.631Z" fill="white"/>
<path opacity="0.2" d="M258.631 175.405C258.746 174.66 258.87 173.923 258.986 173.211L256.574 170.917C256.574 170.917 255.756 172.717 255.467 175.413H258.631V175.405Z" fill="black"/>
<path d="M233.008 175.405H235.602C236.023 170.063 236.659 164.687 237.609 161.145L242.185 157.344L238.584 156.163L235.313 156.347L236.197 160.743C236.197 160.743 234.594 167.509 233 175.405H233.008Z" fill="#263238"/>
<path d="M249.024 154.413C246.001 157.202 238.584 156.172 238.584 156.172C238.584 156.172 233.958 154.89 234.933 153.425C237.659 152.965 238.98 151.683 239.525 150.034C239.839 149.071 239.889 147.991 239.798 146.877C239.757 146.291 239.674 145.697 239.567 145.119L248.727 138.236C247.529 142.774 246.059 151.131 249.016 154.422L249.024 154.413Z" fill="#E4897B"/>
<path opacity="0.2" d="M246.612 142.598C246.249 148.175 241.731 149.707 239.517 150.025C239.831 149.062 239.881 147.982 239.79 146.869L246.604 142.598H246.612Z" fill="black"/>
<path d="M247.67 150.871L238.914 154.874L238.402 151.667L235.181 152.814C234.024 153.224 233.297 154.388 233.43 155.627L233.793 159.152L238.237 156.691L240.451 159.864L250.974 154.723L247.678 150.879L247.67 150.871Z" fill="#059456"/>
<path opacity="0.3" d="M247.67 150.871L238.914 154.874L238.402 151.667L235.181 152.814C234.024 153.224 233.297 154.388 233.43 155.627L233.793 159.152L238.237 156.691L240.451 159.864L250.974 154.723L247.678 150.879L247.67 150.871Z" fill="white"/>
<path d="M229.944 125.324C229.944 125.324 228.573 134.267 233.248 137.725C237.923 141.183 237.972 124.52 237.972 124.52L229.944 125.324Z" fill="#263238"/>
<path d="M246.835 144.876C244.556 148.183 240.839 149.037 237.625 147.991C235.56 147.321 233.694 145.864 232.546 143.77C232.389 143.494 232.256 143.209 232.124 142.908C229.836 137.432 229.134 127.869 234.842 124.302C238.898 121.732 244.258 122.979 246.794 127.099C247.521 128.263 247.959 129.594 248.083 130.976C248.768 137.373 249.462 141.099 246.827 144.876H246.835Z" fill="#E4897B"/>
<path d="M238.881 134.367C239.005 134.87 238.765 135.347 238.435 135.406C238.096 135.464 237.766 135.087 237.675 134.568C237.584 134.058 237.791 133.589 238.121 133.53C238.451 133.471 238.79 133.84 238.881 134.367Z" fill="#263238"/>
<path d="M233.124 135.347C233.248 135.849 233.008 136.327 232.678 136.385C232.347 136.444 232.009 136.067 231.918 135.548C231.827 135.037 232.033 134.568 232.364 134.51C232.694 134.451 233.041 134.853 233.124 135.347Z" fill="#263238"/>
<path d="M234.999 135.288C234.652 136.971 234.082 138.596 233.297 140.12C234.09 140.513 235.015 140.53 235.825 140.17L234.999 135.288Z" fill="#DE5753"/>
<path d="M230.58 133.211C230.687 133.253 230.803 133.228 230.894 133.153C231.455 132.625 232.24 132.391 233 132.533C233.157 132.575 233.33 132.483 233.372 132.324C233.413 132.165 233.322 131.989 233.165 131.947C232.207 131.746 231.216 132.022 230.505 132.692C230.381 132.801 230.357 132.994 230.464 133.119C230.497 133.153 230.538 133.186 230.588 133.203L230.58 133.211Z" fill="#263238"/>
<path d="M239.641 131.839C239.699 131.83 239.757 131.797 239.798 131.747C239.889 131.604 239.839 131.412 239.699 131.328C238.873 130.8 237.84 130.708 236.94 131.093C236.791 131.169 236.725 131.353 236.799 131.504C236.874 131.654 237.056 131.713 237.204 131.646C237.923 131.37 238.732 131.445 239.385 131.872C239.467 131.906 239.567 131.897 239.641 131.847V131.839Z" fill="#263238"/>
<path d="M242.185 123.85V126.705C243.143 127.091 243.821 128.062 243.523 129.226C242.904 131.704 244.663 135.213 246.629 136.46C246.629 136.46 246.563 135.431 247.447 135.565C248.33 135.707 248.719 141.074 247.356 143.821C247.356 143.821 249.603 141.208 250.371 135.431C251.081 130.088 250.734 125.743 249.446 123.867L242.185 123.842V123.85Z" fill="#263238"/>
<path d="M251.684 135.715C251.23 137.265 250.181 138.571 248.776 139.35C246.91 140.363 245.522 138.772 245.654 136.745C245.786 134.945 246.901 132.19 248.966 132.04C251.031 131.889 252.221 133.806 251.684 135.724V135.715Z" fill="#E4897B"/>
<path d="M236.477 141.736C236.998 142.456 237.65 143.871 237.65 143.871C237.791 143.838 237.923 143.796 238.063 143.754C239.914 143.201 240.591 142.33 240.781 141.527C240.88 141.091 240.839 140.664 240.756 140.338C240.665 139.952 240.517 139.701 240.517 139.701C239.707 140.589 238.03 141.234 237.113 141.535C236.733 141.669 236.486 141.736 236.486 141.736H236.477Z" fill="#263238"/>
<path d="M237.105 141.543L237.469 142.163C239.203 141.644 240.36 141.041 240.748 140.338C240.657 139.952 240.508 139.701 240.508 139.701C239.699 140.589 238.022 141.233 237.105 141.535V141.543Z" fill="white"/>
<path d="M238.063 143.754C239.914 143.201 240.591 142.33 240.781 141.526C240.161 141.736 239.435 142.062 238.848 142.548C238.402 142.916 238.179 143.343 238.063 143.754Z" fill="#DE5753"/>
<path d="M245.952 134.267L245.126 133.781C245.126 133.781 245.646 137.206 244.572 138.169C244.572 138.169 240.855 138.571 239.558 138.922C238.262 139.274 237.485 140.79 237.485 140.79C237.485 140.79 234.578 140.162 233.306 142.372C233.306 142.372 231.695 141.007 230.885 138.948C230.885 138.948 230.985 145.203 234.437 148.543C237.898 151.876 243.556 150.218 246.175 147.614C248.793 145.01 245.952 134.275 245.952 134.275V134.267ZM243.507 144.147C242.367 145.705 240.409 145.387 239.567 143.896L238.41 144.541C238.41 144.541 239.682 145.63 238.716 146.626C237.749 147.622 234.759 147.271 234.454 144.382C234.14 141.409 237.749 141.167 237.749 141.167C237.749 141.167 238.947 139.751 241.194 139.735C243.432 139.718 244.647 142.582 243.507 144.139V144.147Z" fill="#263238"/>
<path d="M242.177 126.706C242.177 126.706 228.135 131.562 229.754 121.966C229.754 121.966 237.328 117.445 243.936 118.709C250.544 119.973 250.024 126.915 250.024 126.915L242.177 126.706Z" fill="#263238"/>
<path d="M270.203 175.405C269.36 172.676 264.743 158.114 261.992 156.649C261.992 156.649 260.027 158.265 258.152 162.133C256.277 166.002 255.872 173.764 255.872 173.764L257.086 175.405H270.203Z" fill="#059456"/>
<path opacity="0.2" d="M270.203 175.405C269.36 172.676 264.743 158.114 261.992 156.649C261.992 156.649 260.027 158.265 258.152 162.133C256.277 166.002 255.872 173.764 255.872 173.764L257.086 175.405H270.203Z" fill="white"/>
<path opacity="0.6" d="M344.733 114.296H275.935V175.405H344.733V114.296Z" fill="white"/>
<path d="M293.199 175.405C295.801 172.851 297.61 170.816 297.61 170.816L296.66 155.979C293.579 157.636 283.642 171.377 279.958 175.405H293.199Z" fill="#263238"/>
<path opacity="0.3" d="M293.199 175.405C295.801 172.851 297.61 170.816 297.61 170.816L296.66 155.979C293.579 157.636 283.642 171.377 279.958 175.405H293.199Z" fill="white"/>
<path opacity="0.2" d="M293.199 175.405C295.801 172.851 297.618 170.825 297.618 170.825L297.395 167.3L296.296 163.883C296.296 163.883 291.646 168.254 292.522 175.405H293.199Z" fill="black"/>
<path d="M324.347 136.703C323.637 139.475 327.527 147.111 325.95 161.003C324.372 174.894 309.339 174.048 302.59 169.418C295.834 164.787 297.007 139.659 299.328 134.702C301.649 129.745 324.347 136.712 324.347 136.712V136.703Z" fill="#263238"/>
<path d="M323.282 175.405C323.786 173.504 324.372 171.428 325.082 169.117C325.595 167.467 326.156 165.692 326.784 163.774C327.255 162.326 327.767 160.785 328.329 159.161C324.967 158.072 321.555 157.235 318.078 156.649C314.419 155.987 310.71 155.594 306.993 155.468C302.194 155.426 296.668 155.979 296.668 155.979C296.668 155.979 295.883 156.171 295.388 161.329C295.123 164.16 294.867 168.648 294.892 175.405H323.282Z" fill="#263238"/>
<path opacity="0.3" d="M323.282 175.405C323.786 173.504 324.372 171.428 325.082 169.117C325.595 167.467 326.156 165.692 326.784 163.774C327.255 162.326 327.767 160.785 328.329 159.161C324.967 158.072 321.555 157.235 318.078 156.649C314.419 155.987 310.71 155.594 306.993 155.468C302.194 155.426 296.668 155.979 296.668 155.979C296.668 155.979 295.883 156.171 295.388 161.329C295.123 164.16 294.867 168.648 294.892 175.405H323.282Z" fill="white"/>
<path d="M311.42 154.756C314.377 154.932 319.119 154.907 322.191 159.713H316.575L319.639 163.498C319.639 163.498 309.801 165.876 306.72 172.416C306.72 172.416 302.318 164.662 299.914 162.862C299.914 162.862 302.219 160.467 304.903 159.169C304.903 159.169 302.607 158.122 299.914 157.67C299.914 157.67 307.414 154.513 311.42 154.748V154.756Z" fill="white"/>
<path d="M316.938 157.578C316.938 157.578 309.322 166.287 306.977 170.49C306.977 170.49 305.126 163.632 307.299 156.548L316.946 157.578H316.938Z" fill="#059456"/>
<path opacity="0.6" d="M316.938 157.578C316.938 157.578 309.322 166.287 306.977 170.49C306.977 170.49 305.126 163.632 307.299 156.548L316.946 157.578H316.938Z" fill="white"/>
<path d="M309.025 161.003C315.113 160.216 316.938 157.578 316.938 157.578C313.081 153.886 316.286 147.488 316.286 147.488L308.959 148.878C309.149 150.109 309.231 151.131 309.248 152.002C309.306 156.506 307.29 156.548 307.29 156.548C306.002 158.993 309.025 161.003 309.025 161.003Z" fill="#EEC1BB"/>
<path opacity="0.2" d="M308.959 148.87C309.149 150.101 309.231 151.122 309.248 151.993C314.196 151.993 316.285 147.48 316.285 147.48L308.959 148.87Z" fill="black"/>
<path d="M313.006 128.112C306.638 127.76 304.399 131.101 303.573 137.725C302.541 146.006 304.044 152.01 312.098 150.678C323.042 148.87 323.579 128.698 313.006 128.112Z" fill="#EEC1BB"/>
<path d="M307.712 137.59C307.712 137.59 306.737 139.223 305.713 140.161C305.713 140.161 306.208 141.065 307.348 140.982L307.703 137.582L307.712 137.59Z" fill="#D4827D"/>
<path d="M311.643 137.281C311.602 137.809 311.85 138.261 312.197 138.286C312.544 138.311 312.858 137.909 312.899 137.373C312.94 136.846 312.692 136.393 312.346 136.368C311.999 136.343 311.685 136.745 311.643 137.281Z" fill="#263238"/>
<path d="M312.486 136.41L311.387 135.866C311.387 135.866 311.875 136.879 312.486 136.41Z" fill="#263238"/>
<path d="M305.159 136.653C305.118 137.181 305.366 137.633 305.713 137.658C306.06 137.683 306.373 137.281 306.415 136.745C306.456 136.218 306.208 135.765 305.861 135.74C305.514 135.715 305.201 136.117 305.159 136.653Z" fill="#263238"/>
<path d="M306.002 135.782L304.903 135.238C304.903 135.238 305.391 136.251 306.002 135.782Z" fill="#263238"/>
<path d="M311.949 132.826C311.949 132.826 313.75 132.692 314.658 133.957" stroke="#263238" stroke-width="0.69" stroke-linecap="round" stroke-linejoin="round"/>
<path d="M307.332 132.299C307.332 132.299 306.233 131.813 304.763 132.692" stroke="#263238" stroke-width="0.69" stroke-linecap="round" stroke-linejoin="round"/>
<path d="M308.149 143.578C308.472 144.373 308.769 145.864 308.769 145.864C308.909 145.864 309.041 145.864 309.182 145.847C311.049 145.763 311.883 145.093 312.246 144.382C312.445 143.996 312.494 143.586 312.494 143.251C312.494 142.866 312.412 142.598 312.412 142.598C311.453 143.243 309.719 143.461 308.794 143.536C308.405 143.569 308.158 143.578 308.158 143.578H308.149Z" fill="#263238"/>
<path d="M308.785 143.544L308.984 144.214C310.735 144.13 311.966 143.829 312.486 143.26C312.486 142.874 312.403 142.606 312.403 142.606C311.445 143.251 309.711 143.469 308.785 143.544Z" fill="white"/>
<path d="M309.182 145.847C311.049 145.763 311.883 145.094 312.246 144.382C311.61 144.44 310.85 144.574 310.198 144.893C309.694 145.135 309.388 145.487 309.19 145.839L309.182 145.847Z" fill="#DE5753"/>
<path d="M319.383 139.374C319.383 139.374 316.69 133.906 317.368 129.837C317.368 129.837 305.035 123.909 303.705 136.862C303.705 136.862 303.094 125.265 314.055 125.617C325 125.968 324.091 142.196 318.177 146.718C318.177 146.718 321.043 142.79 319.383 139.374Z" fill="#263238"/>
<path d="M318.268 140.681C318.367 139.642 319.523 137.943 321.415 138.261C323.373 138.587 324.091 142.749 319.135 143.461C318.425 143.561 318.061 142.841 318.268 140.681Z" fill="#EEC1BB"/>
<path d="M315.666 129.192C315.666 129.192 314.658 137.155 319.383 144.382C322.968 149.866 318.846 154.673 318.846 154.673C318.846 154.673 327.346 151.7 323.637 139.475C323.637 139.475 327.635 128.548 319.771 125.609C319.771 125.609 319.73 122.276 312.618 122.912C305.514 123.549 299.782 129.72 298.7 137.591C297.61 145.462 301.665 154.245 301.665 154.245C301.665 154.245 297.362 126.345 315.666 129.192Z" fill="#263238"/>
<path d="M316.054 129.318C315.55 131.11 315.451 133.12 315.526 135.045C315.633 136.988 315.947 138.931 316.442 140.823C316.938 142.715 317.648 144.549 318.574 146.274C319.523 147.974 320.663 149.615 322.183 150.863C320.622 149.674 319.416 148.066 318.4 146.383C317.409 144.675 316.616 142.841 316.046 140.94C315.476 139.04 315.08 137.08 314.906 135.087C314.766 133.086 314.774 131.093 315.261 129.067L316.046 129.318H316.054Z" fill="#263238"/>
<path opacity="0.2" d="M323.282 175.405C323.389 175.003 323.496 174.601 323.612 174.183C322.844 171.453 322.051 173.588 322.051 173.588C322.051 173.588 321.894 174.25 321.77 175.405H323.282Z" fill="black"/>
<path d="M334.028 175.405C331.154 167.634 328.32 159.161 328.32 159.161C322.423 161.522 322.101 173.755 322.101 173.755C322.101 173.755 322.447 174.375 323.017 175.405H334.02H334.028Z" fill="#263238"/>
<path opacity="0.3" d="M334.028 175.405C331.154 167.634 328.32 159.161 328.32 159.161C322.423 161.522 322.101 173.755 322.101 173.755C322.101 173.755 322.447 174.375 323.017 175.405H334.02H334.028Z" fill="white"/>
<path opacity="0.5" d="M203.974 114.296H135.177V175.405H203.974V114.296Z" fill="white"/>
<path d="M170.521 124.236L163.616 131.244H162.187V124.236H170.521Z" fill="white"/>
<path d="M171.967 126.329V131.244H167.118L171.967 126.329Z" fill="white"/>
<path d="M175.453 130.566L172.834 129.729V125.86L175.453 125.023V130.566Z" fill="white"/>
<path d="M168.82 137.248C174.002 137.248 178.203 132.989 178.203 127.736C178.203 122.482 174.002 118.224 168.82 118.224C163.637 118.224 159.436 122.482 159.436 127.736C159.436 132.989 163.637 137.248 168.82 137.248Z" stroke="white" stroke-miterlimit="10"/>
<path d="M175.453 121.012L162.187 134.46" stroke="white" stroke-miterlimit="10"/>
<path d="M57.1775 287.081L77.6458 285.038V255.874H85.7571V285.03L106.308 287.081C108.348 287.282 109.901 289.024 109.901 291.1V294.215H53.5679V291.1C53.5679 289.024 55.1208 287.282 57.161 287.081H57.1775Z" fill="#263238"/>
<path opacity="0.3" d="M57.1775 287.081L77.6458 285.038V255.874H85.7571V285.03L106.308 287.081C108.348 287.282 109.901 289.024 109.901 291.1V294.215H53.5679V291.1C53.5679 289.024 55.1208 287.282 57.161 287.081H57.1775Z" fill="white"/>
<path d="M102.442 298.084C102.442 301.056 104.821 303.459 107.745 303.459C110.669 303.459 113.048 301.048 113.048 298.084C113.048 295.12 110.669 292.708 107.745 292.708C104.821 292.708 102.442 295.12 102.442 298.084Z" fill="#059456"/>
<path d="M61.0515 298.084C61.0515 301.056 58.6726 303.459 55.7486 303.459C52.8246 303.459 50.4457 301.048 50.4457 298.084C50.4457 295.12 52.8246 292.708 55.7486 292.708C58.6726 292.708 61.0515 295.12 61.0515 298.084Z" fill="#059456"/>
<path d="M83.7499 262.146H79.6695C77.7862 262.146 76.2581 260.596 76.2581 258.687V236.171H87.1696V258.687C87.1696 260.596 85.6415 262.146 83.7582 262.146H83.7499Z" fill="#263238"/>
<path opacity="0.5" d="M83.7499 262.146H79.6695C77.7862 262.146 76.2581 260.596 76.2581 258.687V236.171H87.1696V258.687C87.1696 260.596 85.6415 262.146 83.7582 262.146H83.7499Z" fill="white"/>
<path d="M62.3069 190.578C62.3069 190.578 60.7623 229.472 71.4425 236.163H59.2507C59.2507 236.163 49.8013 222.916 52.4693 190.578H62.3069Z" fill="#263238"/>
<path opacity="0.5" d="M62.3069 190.578C62.3069 190.578 60.7623 229.472 71.4425 236.163H59.2507C59.2507 236.163 49.8013 222.916 52.4693 190.578H62.3069Z" fill="white"/>
<path d="M59.2261 230.729H105.622C107.902 230.729 109.752 232.604 109.752 234.915V239.152H55.0961V234.915C55.0961 232.604 56.9463 230.729 59.2261 230.729Z" fill="#059456"/>
<path d="M110.364 234.94H54.4765C53.5596 234.94 52.8163 235.694 52.8163 236.623V237.469C52.8163 238.399 53.5596 239.152 54.4765 239.152H110.364C111.281 239.152 112.024 238.399 112.024 237.469V236.623C112.024 235.694 111.281 234.94 110.364 234.94Z" fill="#059456"/>
<path opacity="0.6" d="M110.364 234.94H54.4765C53.5596 234.94 52.8163 235.694 52.8163 236.623V237.469C52.8163 238.399 53.5596 239.152 54.4765 239.152H110.364C111.281 239.152 112.024 238.399 112.024 237.469V236.623C112.024 235.694 111.281 234.94 110.364 234.94Z" fill="white"/>
<path d="M51.156 198.482H67.3291C73.9803 198.482 79.3722 193.017 79.3722 186.274V181.937C79.3722 175.194 73.9803 169.728 67.3291 169.728H51.156C44.5048 169.728 39.113 175.194 39.113 181.937V186.274C39.113 193.017 44.5048 198.482 51.156 198.482Z" fill="#059456"/>
<path d="M102.517 163.758C104.706 164.671 117.12 180.723 117.451 184.106C117.847 188.2 113.75 188.987 109.282 187.924C104.813 186.86 108.191 182.414 108.191 182.414L101.311 172.651L102.517 163.758Z" fill="#263238"/>
<path d="M100.534 203.732H84.8485C84.8485 203.732 87.8717 182.724 88.359 182.422C88.8464 182.121 99.8321 181.375 99.8321 181.375V193.09L100.534 203.732Z" fill="#263238"/>
<path d="M82.6431 158.056C83.213 157.93 89.2015 155.427 92.456 157.964C95.7104 160.501 99.3779 168.95 93.538 172.014C87.7065 175.079 80.2642 173.48 79.3721 168.866C78.4801 164.252 82.6431 158.056 82.6431 158.056Z" fill="#263238"/>
<path d="M77.9761 139.107C77.9761 139.107 74.0444 148.301 76.795 151.734C79.5455 155.167 97.478 157.863 100.6 154.656C103.723 151.449 99.6338 138.747 99.6338 138.747L77.9761 139.107Z" fill="#263238"/>
<path d="M148.5 274.161L143.825 275.308L141.463 268.769L139.315 262.815L144.634 260.521L146.683 267.739L148.5 274.161Z" fill="#E4897B"/>
<path opacity="0.2" d="M146.683 267.739L141.463 268.769L139.315 262.815L144.634 260.521L146.683 267.739Z" fill="black"/>
<path d="M146.212 264.28L139.728 266.725C139.728 266.725 122.44 222.908 118.888 222.757C115.336 222.606 79.1657 239.462 70.0962 230.109C61.0267 220.764 74.1353 198.24 74.1353 198.24C74.1353 198.24 95.9417 195.083 97.5855 200.073C97.9076 201.036 98.2545 202.937 98.5106 204.553C98.7584 206.077 98.9319 207.358 98.9319 207.358C98.9319 207.358 98.9319 207.358 98.9484 207.358C99.6257 207.182 121.515 201.455 130.138 207.358C138.902 213.362 146.212 264.264 146.212 264.264V264.28Z" fill="#263238"/>
<path opacity="0.2" d="M146.212 264.28L139.728 266.725C139.728 266.725 122.44 222.908 118.888 222.757C115.336 222.606 79.1657 239.462 70.0962 230.109C61.0267 220.764 74.1353 198.24 74.1353 198.24C74.1353 198.24 95.9417 195.083 97.5855 200.073C97.9076 201.036 98.2545 202.937 98.5106 204.553C98.7584 206.077 98.9319 207.358 98.9319 207.358C98.9319 207.358 98.9319 207.358 98.9484 207.358C99.6257 207.182 121.515 201.455 130.138 207.358C138.902 213.362 146.212 264.264 146.212 264.264V264.28Z" fill="white"/>
<path d="M108.943 292.851L104.284 291.645L105.185 284.879L106.011 278.666L111.768 279.185L110.273 286.428L108.943 292.851Z" fill="#E4897B"/>
<path opacity="0.2" d="M110.24 286.57L105.152 285.005L105.994 278.733L111.76 279.219L110.24 286.57Z" fill="black"/>
<path d="M137.06 264.297L146.493 261.04L146.898 264.967L139.744 267.529L137.06 264.297Z" fill="#263238"/>
<path d="M85.7654 232.361C85.7654 232.361 87.2439 232.394 110.116 231.314C110.116 231.314 106.696 260.303 104.829 281.998L111.669 283.179C111.669 283.179 128.007 236.715 127.834 229.33C127.652 221.945 119.309 219.784 119.309 219.784C119.309 219.784 103.012 229.33 85.7654 232.353V232.361Z" fill="#263238"/>
<path opacity="0.1" d="M85.7654 232.361C85.7654 232.361 87.2439 232.394 110.116 231.314C110.116 231.314 106.696 260.303 104.829 281.998L111.669 283.179C111.669 283.179 128.007 236.715 127.834 229.33C127.652 221.945 119.309 219.784 119.309 219.784C119.309 219.784 103.012 229.33 85.7654 232.353V232.361Z" fill="white"/>
<path d="M103.83 279.905L113.23 280.985L111.413 284.72L103.805 283.732L103.83 279.905Z" fill="#263238"/>
<path opacity="0.3" d="M98.9318 207.375L86.1783 210.071C86.1783 210.071 93.2241 206.127 98.5105 204.57C98.7583 206.094 98.9318 207.375 98.9318 207.375Z" fill="black"/>
<path d="M74.6722 194.815L74.1436 198.248L97.5937 200.082L98.2132 196.021L74.6722 194.815Z" fill="#263238"/>
<path opacity="0.2" d="M74.6722 194.815L74.1436 198.248L97.5937 200.082L98.2132 196.021L74.6722 194.815Z" fill="black"/>
<path d="M82.6705 194.586L81.512 194.465L80.9054 200.446L82.064 200.567L82.6705 194.586Z" fill="#263238"/>
<path d="M92.7178 196.017L87.5824 195.683L87.3316 199.635L92.467 199.97L92.7178 196.017Z" fill="white"/>
<path d="M97.0758 195.23L95.9172 195.109L95.3107 201.089L96.4692 201.21L97.0758 195.23Z" fill="#263238"/>
<path opacity="0.2" d="M82.6705 194.586L81.512 194.465L80.9054 200.446L82.064 200.567L82.6705 194.586Z" fill="white"/>
<path opacity="0.2" d="M97.0758 195.23L95.9172 195.109L95.3107 201.089L96.4692 201.21L97.0758 195.23Z" fill="white"/>
<path d="M100.98 163.239C100.98 163.239 95.4874 159.345 87.9626 158.952C80.4377 158.558 73.681 162.762 73.681 162.762L74.6805 194.815L98.2215 196.021C98.2215 196.021 105.639 174.635 100.989 163.239H100.98Z" fill="#059456"/>
<path d="M99.8321 141.82C99.8321 141.82 103.227 126.329 89.0941 127.862C71.3516 129.787 78.0918 152.102 86.8887 150.754C95.6773 149.406 99.8321 141.82 99.8321 141.82Z" fill="#263238"/>
<path opacity="0.2" d="M96.9163 162.561L97.3376 169.309L92.2329 164.671C92.2329 164.671 91.8942 168.037 90.7131 173.588C90.7131 173.588 90.3827 169.862 88.3177 165.215L83.4938 170.197L80.3385 162.569C80.3385 162.569 90.0027 155.468 96.9163 162.569V162.561Z" fill="black"/>
<path d="M90.4818 168.037L87.9377 161.69L83.2543 159.563C87.4091 156.666 85.311 150.185 85.311 150.185L91.9851 152.563C91.6299 153.685 91.4069 154.64 91.2665 155.452C90.5726 159.672 92.4476 160.007 92.4476 160.007L91.1591 161.899L90.4735 168.029L90.4818 168.037Z" fill="#E4897B"/>
<path opacity="0.2" d="M91.9934 152.563C91.6382 153.685 91.4152 154.64 91.2748 155.452C88.0781 154.154 85.311 150.177 85.311 150.177L91.9851 152.555L91.9934 152.563Z" fill="black"/>
<path d="M92.2247 132.341C98.2627 132.869 99.923 136.31 99.8321 142.657C99.7165 150.587 97.5193 156.03 90.1184 153.693C80.066 150.52 82.2053 131.479 92.2247 132.35V132.341Z" fill="#E4897B"/>
<path d="M95.9582 141.971C95.9582 141.971 96.6603 143.645 97.5028 144.659C97.5028 144.659 96.9164 145.446 95.8508 145.211L95.9582 141.971Z" fill="#DE5753"/>
<path d="M92.3072 141.15C92.2742 141.652 91.9851 142.046 91.6547 142.021C91.3243 141.996 91.0765 141.577 91.1095 141.075C91.1426 140.572 91.4317 140.179 91.7621 140.204C92.0925 140.229 92.3403 140.648 92.3072 141.15Z" fill="#263238"/>
<path d="M91.6299 140.212L92.7367 139.852C92.7367 139.852 92.142 140.74 91.6299 140.212Z" fill="#263238"/>
<path d="M98.494 141.435C98.4609 141.937 98.1718 142.331 97.8414 142.305C97.511 142.289 97.2633 141.862 97.2963 141.359C97.3293 140.857 97.6184 140.463 97.9488 140.488C98.2792 140.505 98.527 140.932 98.494 141.435Z" fill="#263238"/>
<path d="M97.8085 140.497L98.9153 140.137C98.9153 140.137 98.3206 141.024 97.8085 140.497Z" fill="#263238"/>
<path d="M92.6046 136.913C92.6046 136.913 90.9278 136.545 89.9119 137.608" stroke="#263238" stroke-width="0.72" stroke-linecap="round" stroke-linejoin="round"/>
<path d="M97.0155 137.039C97.0155 137.039 98.1141 136.729 99.3779 137.751" stroke="#263238" stroke-width="0.72" stroke-linecap="round" stroke-linejoin="round"/>
<path d="M84.7577 142.071C84.7577 142.071 88.0038 137.29 87.9047 133.371C87.9047 133.371 100.286 129.461 99.8322 141.82C99.8322 141.82 101.93 130.993 91.5722 129.846C81.2389 128.699 79.9586 144.089 84.9311 149.138C84.9311 149.138 82.7505 145.06 84.7577 142.071Z" fill="#263238"/>
<path d="M85.6332 143.453C85.6745 142.465 84.8154 140.706 82.99 140.756C81.0984 140.798 79.8842 144.617 84.452 145.956C85.1045 146.149 85.5423 145.521 85.6332 143.461V143.453Z" fill="#E4897B"/>
<path d="M96.1895 147.706C95.76 148.401 95.2396 149.741 95.2396 149.741C95.1075 149.716 94.9836 149.691 94.8597 149.657C93.1333 149.264 92.456 148.51 92.233 147.782C92.1091 147.388 92.1339 146.995 92.1834 146.685C92.2412 146.325 92.3651 146.082 92.3651 146.082C93.1581 146.844 94.744 147.33 95.6031 147.556C95.9583 147.656 96.1895 147.698 96.1895 147.698V147.706Z" fill="#263238"/>
<path d="M95.6031 147.564L95.3058 148.159C93.6785 147.79 92.58 147.305 92.1835 146.685C92.2413 146.325 92.3652 146.082 92.3652 146.082C93.1582 146.844 94.7441 147.33 95.6031 147.556V147.564Z" fill="white"/>
<path d="M94.8597 149.657C93.1334 149.264 92.4561 148.51 92.233 147.782C92.8195 147.941 93.5051 148.192 94.0668 148.602C94.4963 148.912 94.7275 149.297 94.8597 149.657Z" fill="#DE5753"/>
<path d="M92.0595 132.785C92.0595 132.785 88.772 142.64 82.5357 141.962C76.2911 141.292 87.0209 129.385 87.0209 129.385C87.0209 129.385 97.5524 126.371 102.12 132.299C106.688 138.228 99.8239 141.812 99.8239 141.812C99.8239 141.812 100.873 134.049 92.0512 132.777L92.0595 132.785Z" fill="#263238"/>
<path d="M92.0594 132.065C92.0594 132.065 92.2164 138.998 87.0621 140.983" stroke="#263238" stroke-width="0.5" stroke-linecap="round" stroke-linejoin="round"/>
<path d="M85.0632 157.084L87.9377 161.69L84.3364 168.037L81.7262 159.89L85.0632 157.084Z" fill="#059456"/>
<path d="M91.1674 157.964V161.908L95.4213 166.672L94.0336 159.831L91.1674 157.964Z" fill="#059456"/>
<path d="M156.231 283.363C155.521 283.028 154.753 282.836 153.976 282.786C153.976 282.786 151.275 281.178 148.599 274.923L145.593 274.906C144.552 274.915 143.627 275.584 143.28 276.581C143.23 276.715 143.205 276.857 143.197 277C143.23 277.736 143.305 278.473 143.428 279.193C143.701 281.471 145.188 286.369 145.188 286.369L145.7 286.235L144.775 281.689C144.469 280.14 146.072 281.638 146.815 283.196C147.558 284.753 148.698 286.319 152.019 285.557C155.893 284.636 157.446 284.075 156.24 283.372L156.231 283.363Z" fill="#263238"/>
<path d="M148.062 273.282C148.062 273.282 151.821 281.245 153.976 282.785C153.976 282.785 151.077 284.535 148.062 280.634C144.155 275.593 143.205 276.999 143.205 276.999C143.205 276.999 143.371 275.275 143.676 274.429C144.263 272.804 148.062 273.282 148.062 273.282Z" fill="#E4897B"/>
<path d="M114.865 302.346C114.254 301.852 113.56 301.475 112.809 301.241C112.809 301.241 110.562 299.03 109.43 292.306L106.514 291.569C105.498 291.335 104.449 291.762 103.879 292.641C103.797 292.758 103.739 292.892 103.698 293.035C103.557 293.755 103.458 294.492 103.409 295.229C103.136 297.506 103.442 302.622 103.442 302.622H103.97L104.136 297.975C104.202 296.401 105.408 298.235 105.763 299.926C106.118 301.617 106.861 303.418 110.264 303.468C114.238 303.51 115.89 303.334 114.874 302.354L114.865 302.346Z" fill="#263238"/>
<path d="M109.29 290.581C109.29 290.581 111.074 299.223 112.817 301.241C112.817 301.241 109.587 302.245 107.572 297.732C104.962 291.896 103.706 293.035 103.706 293.035C103.706 293.035 104.268 291.394 104.763 290.648C105.713 289.208 109.298 290.59 109.298 290.59L109.29 290.581Z" fill="#E4897B"/>
<path d="M80.9662 159.513C80.9662 159.513 88.2929 181.577 77.9761 206.63L67.9485 205.307L74.1517 191.047L72.7888 162.376L80.9662 159.521V159.513Z" fill="#263238"/>
<path d="M94.8596 160.292C94.8596 160.292 98.2132 165.768 97.8084 182.414L99.8404 205.96L101.782 204.562L100.196 193.082C100.196 193.082 104.433 172.86 102.525 163.758L94.8679 160.3L94.8596 160.292Z" fill="#263238"/>
<path d="M92.456 157.964C92.456 157.964 98.1472 160.995 101.055 165.14L98.9319 167.124L101.773 171.345L97.8002 182.414C97.8002 182.414 95.6444 161.64 92.4478 157.964H92.456Z" fill="#263238"/>
<path opacity="0.2" d="M92.456 157.964C92.456 157.964 98.1472 160.995 101.055 165.14L98.9319 167.124L101.773 171.345L97.8002 182.414C97.8002 182.414 95.6444 161.64 92.4478 157.964H92.456Z" fill="white"/>
<path d="M82.6431 158.056C82.6431 158.056 85.2532 173.17 83.2543 183.603L77.0098 169.259L80.5863 165.776L75.8203 162.326C75.8203 162.326 78.6452 159.261 82.6431 158.056Z" fill="#263238"/>
<path opacity="0.2" d="M82.6431 158.056C82.6431 158.056 85.2532 173.17 83.2543 183.603L77.0098 169.259L80.5863 165.776L75.8203 162.326C75.8203 162.326 78.6452 159.261 82.6431 158.056Z" fill="white"/>
<path d="M90.0358 184.616L98.4857 185.211C98.4857 185.211 99.6669 184.415 100.699 184.164C101.732 183.913 107.737 183.243 108.827 183.678C109.909 184.114 110.901 187.706 110.801 188.459C110.702 189.213 101.616 189.456 101.335 189.481C101.046 189.506 100.014 188.526 100.014 188.526L90.044 188.426V184.608L90.0358 184.616Z" fill="#E4897B"/>
<path d="M72.7889 162.368C67.2877 165.718 64.2894 183.762 67.9403 186.584C71.5912 189.406 96.6768 189.481 96.6768 189.481L97.5028 184.105C97.5028 184.105 75.9525 181.92 74.8622 179.793C73.7636 177.666 74.1518 169.301 74.1518 169.301L72.7889 162.36V162.368Z" fill="#263238"/>
<path d="M170.083 303.459H174.436L182.259 193.082H176.485L170.083 303.459Z" fill="#263238"/>
<path opacity="0.7" d="M170.083 303.459H174.436L181.879 198.566L182.259 193.257H176.485L176.171 198.566L170.083 303.459Z" fill="white"/>
<path opacity="0.2" d="M176.171 198.298H181.879L182.259 193.257H176.485L176.171 198.298Z" fill="black"/>
<path d="M138.142 303.459H142.495L143.206 193.082H137.432L138.142 303.459Z" fill="#263238"/>
<path opacity="0.7" d="M137.423 193.257L137.539 211.067L138.134 303.459H142.495L143.09 211.067L143.205 193.257H137.423Z" fill="white"/>
<path opacity="0.2" d="M137.423 193.257L137.539 211.268H143.09L143.205 193.257H137.423Z" fill="black"/>
<path d="M91.9272 303.459H96.2803L104.102 193.082H98.3288L91.9272 303.459Z" fill="#263238"/>
<path opacity="0.7" d="M91.9272 303.459H96.2803L103.723 198.566L104.102 193.257H98.3288L98.0149 198.566L91.9272 303.459Z" fill="white"/>
<path opacity="0.2" d="M98.0149 198.298H103.723L104.103 193.257H98.3288L98.0149 198.298Z" fill="black"/>
<path d="M219.883 303.459H224.236L217.835 193.082H212.061L219.883 303.459Z" fill="#263238"/>
<path opacity="0.7" d="M212.061 193.257L212.441 198.566L219.883 303.459H224.228L218.148 198.566L217.835 193.257H212.061Z" fill="white"/>
<path opacity="0.2" d="M217.835 193.257H212.061L212.441 198.298H218.148L217.835 193.257Z" fill="black"/>
<path d="M220.626 195.845L95.5368 195.845C94.5539 195.845 93.7527 195.033 93.7527 194.036V190.318L222.419 190.318V194.036C222.419 195.033 221.617 195.845 220.635 195.845H220.626Z" fill="#059456"/>
<path opacity="0.6" d="M220.626 195.845L95.5368 195.845C94.5539 195.845 93.7527 195.033 93.7527 194.036V190.318L222.419 190.318V194.036C222.419 195.033 221.617 195.845 220.635 195.845H220.626Z" fill="white"/>
<path opacity="0.2" d="M93.7528 193.082L222.419 193.082V190.318L93.7528 190.318V193.082Z" fill="black"/>
<path d="M91.0517 191.038H225.112C225.962 191.038 226.648 190.343 226.648 189.481C226.648 188.618 225.962 187.923 225.112 187.923H91.0517C90.201 187.923 89.5154 188.618 89.5154 189.481C89.5154 190.343 90.201 191.038 91.0517 191.038Z" fill="#059456"/>
<path opacity="0.6" d="M91.0517 191.038H225.112C225.962 191.038 226.648 190.343 226.648 189.481C226.648 188.618 225.962 187.923 225.112 187.923H91.0517C90.201 187.923 89.5154 188.618 89.5154 189.481C89.5154 190.343 90.201 191.038 91.0517 191.038Z" fill="white"/>
<path d="M170.133 187.924L169.431 185.236H140.62L127.346 186.584L126.842 187.924H170.133Z" fill="#263238"/>
<path opacity="0.4" d="M140.62 185.236V187.924H170.133L169.431 185.236H140.62Z" fill="black"/>
<path d="M146.41 172.374C146.286 173.789 147.302 174.945 148.698 174.945H192.84C194.236 174.945 195.475 173.789 195.607 172.374L198.225 143.729C198.25 143.436 198.225 143.151 198.167 142.891C197.92 141.887 197.044 141.158 195.937 141.158H151.796C150.4 141.158 149.161 142.314 149.029 143.729L146.41 172.374Z" fill="#263238"/>
<path opacity="0.4" d="M148.847 174.945H192.831C194.227 174.945 195.466 173.789 195.599 172.374L198.217 143.729C198.242 143.436 198.217 143.151 198.159 142.892H154.175C152.779 142.892 151.548 144.047 151.408 145.462L148.789 174.108C148.764 174.401 148.789 174.685 148.847 174.945Z" fill="black"/>
<path d="M179.178 157.377H170.042L172.479 183.879L158.04 186.081V187.923H188.445V186.081L182.217 183.879L179.178 157.377Z" fill="#263238"/>
<path opacity="0.1" d="M170.042 157.377L176.807 187.505L182.217 187.337L179.178 157.377H170.042Z" fill="white"/>
<path d="M174.915 139.216H173.156V142.322H174.915V139.216Z" fill="#263238"/>
<path d="M173.156 139.09H171.033C171.033 139.09 170.728 138.571 170.728 137.683C170.728 136.796 171.033 136.276 171.033 136.276H173.156V139.09Z" fill="#263238"/>
<path d="M176.782 137.558C176.782 138.99 175.634 140.153 174.222 140.153C172.809 140.153 171.661 138.99 171.661 137.558C171.661 136.126 172.809 134.962 174.222 134.962C175.634 134.962 176.782 136.126 176.782 137.558Z" fill="#263238"/>
<path opacity="0.1" d="M176.782 137.558C176.782 138.99 175.634 140.153 174.222 140.153C172.809 140.153 171.661 138.99 171.661 137.558C171.661 136.126 172.809 134.962 174.222 134.962C175.634 134.962 176.782 136.126 176.782 137.558Z" fill="white"/>
<path d="M205.428 167.919V187.923H195.59C195.59 178.763 197.556 170.607 198.456 167.367C198.704 166.488 199.489 165.885 200.389 165.885H203.421C204.528 165.885 205.428 166.797 205.428 167.919Z" fill="#263238"/>
<path opacity="0.4" d="M205.428 167.919V187.923H200.505V168.656C200.505 167.124 201.727 165.885 203.239 165.885H203.421C204.528 165.885 205.428 166.797 205.428 167.919Z" fill="black"/>
<path d="M142.652 167.919V187.923H132.814C132.814 178.763 134.78 170.607 135.681 167.367C135.928 166.488 136.713 165.885 137.613 165.885H140.645C141.752 165.885 142.652 166.797 142.652 167.919Z" fill="#263238"/>
<path opacity="0.4" d="M142.652 167.919V187.923H137.729V168.656C137.729 167.124 138.951 165.885 140.463 165.885H140.645C141.752 165.885 142.652 166.797 142.652 167.919Z" fill="black"/>
</g>
<defs>
<clipPath id="clip0_7418_9601">
<rect width="413" height="312" fill="white" transform="translate(-12)"/>
</clipPath>
</defs>
</svg>
