<svg width="199" height="110" viewBox="0 0 199 110" fill="none" xmlns="http://www.w3.org/2000/svg">
<rect x="0.5" y="0.5" width="198" height="109" rx="7.5" fill="white"/>
<rect x="0.5" y="0.5" width="198" height="109" rx="7.5" stroke="#E6E7EA"/>
<path d="M109.854 29.2853V35.662L92.5752 56.6607H89.0953C87.2098 56.6607 85.667 55.118 85.667 53.2323V29.2853C85.667 27.3997 87.1926 25.8569 89.0953 25.8569H106.426C108.311 25.8569 109.854 27.3997 109.854 29.2853Z" fill="#C6CAD4"/>
<path d="M113.331 39.137V56.7136C113.331 58.607 111.796 60.142 109.903 60.142H92.57C90.6765 60.142 89.1416 58.607 89.1416 56.7136V32.7662C89.1416 30.8728 90.6765 29.3379 92.57 29.3379H103.532V35.7086C103.532 37.602 105.067 39.137 106.961 39.137H113.331Z" fill="#ECEDF1"/>
<path d="M113.333 39.1416H106.957C105.063 39.1416 103.528 37.6066 103.528 35.7132V29.3364L113.333 39.1416Z" fill="#D9DCE3"/>
<path d="M106.173 48.6217H96.3001C95.3535 48.6217 94.5859 47.8542 94.5859 46.9075C94.5859 45.9609 95.3535 45.1934 96.3001 45.1934H106.173C107.12 45.1934 107.888 45.9609 107.888 46.9075C107.888 47.8542 107.12 48.6217 106.173 48.6217Z" fill="white"/>
<path d="M106.173 55.2394H96.3001C95.3535 55.2394 94.5859 54.4719 94.5859 53.5252C94.5859 52.5786 95.3535 51.811 96.3001 51.811H106.173C107.12 51.811 107.888 52.5786 107.888 53.5252C107.888 54.4719 107.12 55.2394 106.173 55.2394Z" fill="white"/>
<path d="M62.3974 75.2173H60.8036C60.7582 74.956 60.6744 74.7244 60.5522 74.5227C60.43 74.3182 60.2781 74.1449 60.0962 74.0028C59.9144 73.8608 59.707 73.7543 59.4741 73.6832C59.244 73.6094 58.9954 73.5724 58.7283 73.5724C58.2539 73.5724 57.8335 73.6918 57.467 73.9304C57.1005 74.1662 56.8136 74.5128 56.6062 74.9702C56.3988 75.4247 56.2951 75.9801 56.2951 76.6364C56.2951 77.304 56.3988 77.8665 56.6062 78.3239C56.8164 78.7784 57.1033 79.1222 57.467 79.3551C57.8335 79.5852 58.2525 79.7003 58.7241 79.7003C58.9854 79.7003 59.2298 79.6662 59.457 79.598C59.6871 79.527 59.8931 79.4233 60.0749 79.2869C60.2596 79.1506 60.4144 78.983 60.5394 78.7841C60.6673 78.5852 60.7553 78.358 60.8036 78.1023L62.3974 78.1108C62.3377 78.5256 62.2085 78.9148 62.0096 79.2784C61.8136 79.642 61.5565 79.9631 61.2383 80.2415C60.9201 80.517 60.5479 80.733 60.1218 80.8892C59.6957 81.0426 59.2227 81.1193 58.7028 81.1193C57.9357 81.1193 57.2511 80.9418 56.6488 80.5866C56.0465 80.2315 55.5721 79.7188 55.2255 79.0483C54.8789 78.3778 54.7056 77.5739 54.7056 76.6364C54.7056 75.696 54.8803 74.892 55.2298 74.2244C55.5792 73.554 56.055 73.0412 56.6573 72.6861C57.2596 72.331 57.9414 72.1534 58.7028 72.1534C59.1886 72.1534 59.6403 72.2216 60.0579 72.358C60.4755 72.4943 60.8477 72.6946 61.1744 72.9588C61.5011 73.2202 61.7695 73.5412 61.9798 73.9219C62.1928 74.2997 62.332 74.7315 62.3974 75.2173ZM65.3196 77.1648V81H63.777V72.2727H65.2855V75.5668H65.3622C65.5156 75.1974 65.7528 74.9062 66.0739 74.6932C66.3977 74.4773 66.8097 74.3693 67.3097 74.3693C67.7642 74.3693 68.1605 74.4645 68.4986 74.6548C68.8366 74.8452 69.098 75.1236 69.2827 75.4901C69.4702 75.8565 69.5639 76.304 69.5639 76.8324V81H68.0213V77.071C68.0213 76.6307 67.9077 76.2884 67.6804 76.044C67.456 75.7969 67.1406 75.6733 66.7344 75.6733C66.4616 75.6733 66.2173 75.733 66.0014 75.8523C65.7884 75.9687 65.6207 76.1378 65.4986 76.3594C65.3793 76.581 65.3196 76.8494 65.3196 77.1648ZM77.7159 74.1179H78.7088C78.7088 74.5895 78.6406 74.9858 78.5043 75.3068C78.3707 75.625 78.142 75.8651 77.8182 76.027C77.4943 76.1889 77.0469 76.2699 76.4759 76.2699V75.4943C76.8565 75.4943 77.1335 75.446 77.3068 75.3494C77.4801 75.25 77.5909 75.098 77.6392 74.8935C77.6875 74.6889 77.7131 74.4304 77.7159 74.1179ZM75.3338 78.2472V74.4545H76.8807V81H75.3807V79.8366H75.3125C75.1648 80.2031 74.9219 80.5028 74.5838 80.7358C74.2486 80.9687 73.8352 81.0852 73.3438 81.0852C72.9148 81.0852 72.5355 80.9901 72.206 80.7997C71.8793 80.6065 71.6236 80.3267 71.4389 79.9602C71.2543 79.5909 71.1619 79.1449 71.1619 78.6222V74.4545H72.7045V78.3835C72.7074 78.7983 72.821 79.1278 73.0455 79.3722C73.2727 79.6165 73.571 79.7386 73.9403 79.7386C74.1676 79.7386 74.3878 79.6832 74.6009 79.5724C74.8168 79.4616 74.9929 79.2969 75.1293 79.0781C75.2685 78.8565 75.3366 78.5795 75.3338 78.2472ZM81.1761 81.1321C80.7614 81.1321 80.3878 81.0582 80.0554 80.9105C79.7259 80.7599 79.4645 80.5384 79.2713 80.2457C79.081 79.9531 78.9858 79.5923 78.9858 79.1634C78.9858 78.794 79.054 78.4886 79.1903 78.2472C79.3267 78.0057 79.5128 77.8125 79.7486 77.6676C79.9844 77.5227 80.25 77.4134 80.5455 77.3395C80.8438 77.2628 81.152 77.2074 81.4702 77.1733C81.8537 77.1335 82.1648 77.098 82.4034 77.0668C82.642 77.0327 82.8153 76.9815 82.9233 76.9134C83.0341 76.8423 83.0895 76.733 83.0895 76.5852V76.5597C83.0895 76.2386 82.9943 75.9901 82.804 75.8139C82.6136 75.6378 82.3395 75.5497 81.9815 75.5497C81.6037 75.5497 81.304 75.6321 81.0824 75.7969C80.8636 75.9616 80.7159 76.1562 80.6392 76.3807L79.1989 76.1761C79.3125 75.7784 79.5 75.446 79.7614 75.179C80.0227 74.9091 80.3423 74.7074 80.7202 74.5739C81.098 74.4375 81.5156 74.3693 81.973 74.3693C82.2884 74.3693 82.6023 74.4062 82.9148 74.4801C83.2273 74.554 83.5128 74.6761 83.7713 74.8466C84.0298 75.0142 84.2372 75.2429 84.3935 75.5327C84.5526 75.8224 84.6321 76.1847 84.6321 76.6193V81H83.1491V80.1009H83.098C83.0043 80.2827 82.8722 80.4531 82.7017 80.6122C82.5341 80.7685 82.3224 80.8949 82.0668 80.9915C81.8139 81.0852 81.517 81.1321 81.1761 81.1321ZM81.5767 79.9986C81.8864 79.9986 82.1548 79.9375 82.3821 79.8153C82.6094 79.6903 82.7841 79.5256 82.9062 79.321C83.0312 79.1165 83.0938 78.8935 83.0938 78.652V77.8807C83.0455 77.9205 82.9631 77.9574 82.8466 77.9915C82.733 78.0256 82.6051 78.0554 82.4631 78.081C82.321 78.1065 82.1804 78.1293 82.0412 78.1491C81.902 78.169 81.7813 78.1861 81.679 78.2003C81.4489 78.2315 81.2429 78.2827 81.0611 78.3537C80.8793 78.4247 80.7358 78.5241 80.6307 78.652C80.5256 78.777 80.473 78.9389 80.473 79.1378C80.473 79.4219 80.5767 79.6364 80.7841 79.7812C80.9915 79.9261 81.2557 79.9986 81.5767 79.9986ZM92.0149 81.1278C91.3615 81.1278 90.8004 80.9844 90.3317 80.6974C89.8658 80.4105 89.5064 80.0142 89.2536 79.5085C89.0036 79 88.8786 78.4148 88.8786 77.7528C88.8786 77.0881 89.0064 76.5014 89.2621 75.9929C89.5178 75.4815 89.8786 75.0838 90.3445 74.7997C90.8132 74.5128 91.3672 74.3693 92.0064 74.3693C92.5376 74.3693 93.0078 74.4673 93.4169 74.6634C93.8288 74.8565 94.157 75.1307 94.4013 75.4858C94.6456 75.8381 94.7848 76.25 94.8189 76.7216H93.3445C93.2848 76.4062 93.1428 76.1435 92.9183 75.9332C92.6967 75.7202 92.3999 75.6136 92.0277 75.6136C91.7124 75.6136 91.4354 75.6989 91.1967 75.8693C90.9581 76.0369 90.772 76.2784 90.6385 76.5938C90.5078 76.9091 90.4425 77.2869 90.4425 77.7273C90.4425 78.1733 90.5078 78.5568 90.6385 78.8778C90.7692 79.196 90.9524 79.4418 91.1882 79.6151C91.4268 79.7855 91.7067 79.8707 92.0277 79.8707C92.255 79.8707 92.4581 79.8281 92.6371 79.7429C92.8189 79.6548 92.9709 79.5284 93.093 79.3636C93.2152 79.1989 93.299 78.9986 93.3445 78.7628H94.8189C94.782 79.2259 94.6456 79.6364 94.4098 79.9943C94.174 80.3494 93.853 80.6278 93.4467 80.8295C93.0405 81.0284 92.5632 81.1278 92.0149 81.1278ZM98.9407 81.1278C98.3015 81.1278 97.7475 80.9872 97.2788 80.706C96.81 80.4247 96.4464 80.0312 96.1879 79.5256C95.9322 79.0199 95.8043 78.429 95.8043 77.7528C95.8043 77.0767 95.9322 76.4844 96.1879 75.9759C96.4464 75.4673 96.81 75.0724 97.2788 74.7912C97.7475 74.5099 98.3015 74.3693 98.9407 74.3693C99.5799 74.3693 100.134 74.5099 100.603 74.7912C101.071 75.0724 101.434 75.4673 101.689 75.9759C101.948 76.4844 102.077 77.0767 102.077 77.7528C102.077 78.429 101.948 79.0199 101.689 79.5256C101.434 80.0312 101.071 80.4247 100.603 80.706C100.134 80.9872 99.5799 81.1278 98.9407 81.1278ZM98.9492 79.892C99.2958 79.892 99.5856 79.7969 99.8185 79.6065C100.051 79.4134 100.225 79.1548 100.338 78.831C100.455 78.5071 100.513 78.1463 100.513 77.7486C100.513 77.348 100.455 76.9858 100.338 76.6619C100.225 76.3352 100.051 76.0753 99.8185 75.8821C99.5856 75.6889 99.2958 75.5923 98.9492 75.5923C98.5941 75.5923 98.2987 75.6889 98.0629 75.8821C97.8299 76.0753 97.6552 76.3352 97.5387 76.6619C97.4251 76.9858 97.3683 77.348 97.3683 77.7486C97.3683 78.1463 97.4251 78.5071 97.5387 78.831C97.6552 79.1548 97.8299 79.4134 98.0629 79.6065C98.2987 79.7969 98.5941 79.892 98.9492 79.892ZM98.3484 73.5938L99.3029 71.6463H100.811L99.5032 73.5938H98.3484ZM108.792 81.1151C108.278 81.1151 107.817 80.983 107.411 80.7188C107.005 80.4545 106.684 80.071 106.448 79.5682C106.212 79.0653 106.094 78.4545 106.094 77.7358C106.094 77.0085 106.214 76.3949 106.452 75.8949C106.694 75.392 107.019 75.0128 107.428 74.7571C107.837 74.4986 108.293 74.3693 108.796 74.3693C109.18 74.3693 109.495 74.4347 109.742 74.5653C109.989 74.6932 110.185 74.848 110.33 75.0298C110.475 75.2088 110.587 75.3778 110.667 75.5369H110.731V72.2727H112.278V81H110.761V79.9688H110.667C110.587 80.1278 110.472 80.2969 110.322 80.4759C110.171 80.652 109.972 80.8026 109.725 80.9276C109.478 81.0526 109.167 81.1151 108.792 81.1151ZM109.222 79.8494C109.549 79.8494 109.827 79.7614 110.058 79.5852C110.288 79.4062 110.462 79.1577 110.582 78.8395C110.701 78.5213 110.761 78.1506 110.761 77.7273C110.761 77.304 110.701 76.9361 110.582 76.6236C110.465 76.3111 110.292 76.0682 110.062 75.8949C109.835 75.7216 109.555 75.6349 109.222 75.6349C108.879 75.6349 108.592 75.7244 108.362 75.9034C108.131 76.0824 107.958 76.3295 107.842 76.6449C107.725 76.9602 107.667 77.321 107.667 77.7273C107.667 78.1364 107.725 78.5014 107.842 78.8224C107.961 79.1406 108.136 79.392 108.366 79.5767C108.599 79.7585 108.884 79.8494 109.222 79.8494ZM120.501 74.1179H121.494C121.494 74.5895 121.426 74.9858 121.289 75.3068C121.156 75.625 120.927 75.8651 120.603 76.027C120.279 76.1889 119.832 76.2699 119.261 76.2699V75.4943C119.642 75.4943 119.919 75.446 120.092 75.3494C120.265 75.25 120.376 75.098 120.424 74.8935C120.473 74.6889 120.498 74.4304 120.501 74.1179ZM118.119 78.2472V74.4545H119.666V81H118.166V79.8366H118.098C117.95 80.2031 117.707 80.5028 117.369 80.7358C117.034 80.9687 116.62 81.0852 116.129 81.0852C115.7 81.0852 115.321 80.9901 114.991 80.7997C114.664 80.6065 114.409 80.3267 114.224 79.9602C114.039 79.5909 113.947 79.1449 113.947 78.6222V74.4545H115.49V78.3835C115.493 78.7983 115.606 79.1278 115.831 79.3722C116.058 79.6165 116.356 79.7386 116.725 79.7386C116.953 79.7386 117.173 79.6832 117.386 79.5724C117.602 79.4616 117.778 79.2969 117.914 79.0781C118.054 78.8565 118.122 78.5795 118.119 78.2472ZM115.562 73.6577L114.629 73.6364C114.629 73.1307 114.76 72.7344 115.021 72.4474C115.282 72.1605 115.605 72.017 115.988 72.017C116.173 72.017 116.333 72.0483 116.47 72.1108C116.606 72.1705 116.731 72.2401 116.845 72.3196C116.961 72.3991 117.075 72.4702 117.186 72.5327C117.297 72.5923 117.419 72.6222 117.552 72.6222C117.714 72.6222 117.842 72.5611 117.936 72.4389C118.032 72.3168 118.082 72.1605 118.085 71.9702L119.001 72.0085C118.998 72.517 118.866 72.9119 118.605 73.1932C118.343 73.4716 118.022 73.6122 117.642 73.6151C117.437 73.6179 117.265 73.5881 117.126 73.5256C116.987 73.4631 116.865 73.392 116.76 73.3125C116.657 73.233 116.554 73.1634 116.449 73.1037C116.343 73.0412 116.22 73.0099 116.078 73.0099C115.927 73.0099 115.804 73.0696 115.707 73.1889C115.61 73.3082 115.562 73.4645 115.562 73.6577ZM126.597 72.2727V81H125.054V72.2727H126.597ZM128.183 81V74.4545H129.726V81H128.183ZM128.959 73.5256C128.714 73.5256 128.504 73.4446 128.328 73.2827C128.152 73.1179 128.064 72.9205 128.064 72.6903C128.064 72.4574 128.152 72.2599 128.328 72.098C128.504 71.9332 128.714 71.8509 128.959 71.8509C129.206 71.8509 129.416 71.9332 129.589 72.098C129.766 72.2599 129.854 72.4574 129.854 72.6903C129.854 72.9205 129.766 73.1179 129.589 73.2827C129.416 73.4446 129.206 73.5256 128.959 73.5256ZM134.21 81.1278C133.554 81.1278 132.987 80.9915 132.51 80.7188C132.035 80.4432 131.67 80.054 131.414 79.5511C131.159 79.0455 131.031 78.4503 131.031 77.7656C131.031 77.0923 131.159 76.5014 131.414 75.9929C131.673 75.4815 132.034 75.0838 132.497 74.7997C132.96 74.5128 133.504 74.3693 134.129 74.3693C134.532 74.3693 134.913 74.4347 135.271 74.5653C135.632 74.6932 135.95 74.892 136.225 75.1619C136.504 75.4318 136.723 75.7756 136.882 76.1932C137.041 76.608 137.12 77.1023 137.12 77.6761V78.1491H131.755V77.1094H135.642C135.639 76.8139 135.575 76.5511 135.45 76.321C135.325 76.0881 135.15 75.9048 134.926 75.7713C134.704 75.6378 134.446 75.571 134.15 75.571C133.835 75.571 133.558 75.6477 133.319 75.8011C133.081 75.9517 132.895 76.1506 132.761 76.3977C132.63 76.642 132.564 76.9105 132.561 77.2031V78.1108C132.561 78.4915 132.63 78.8182 132.77 79.0909C132.909 79.3608 133.103 79.5682 133.353 79.7131C133.603 79.8551 133.896 79.9261 134.231 79.9261C134.456 79.9261 134.659 79.8949 134.841 79.8324C135.022 79.767 135.18 79.6719 135.314 79.5469C135.447 79.4219 135.548 79.267 135.616 79.0824L137.056 79.2443C136.966 79.625 136.792 79.9574 136.537 80.2415C136.284 80.5227 135.96 80.7415 135.565 80.8977C135.17 81.0511 134.718 81.1278 134.21 81.1278ZM134.951 73.6705L134.086 72.5795L133.221 73.6705H131.87V73.6108L133.485 71.7699H134.691L136.302 73.6108V73.6705H134.951ZM134.086 83.3565C133.839 83.3565 133.627 83.2741 133.451 83.1094C133.278 82.9446 133.191 82.7472 133.191 82.517C133.191 82.2869 133.278 82.0895 133.451 81.9247C133.627 81.7599 133.838 81.6776 134.082 81.6776C134.329 81.6776 134.539 81.7599 134.713 81.9247C134.889 82.0895 134.977 82.2869 134.977 82.517C134.977 82.7472 134.889 82.9446 134.713 83.1094C134.539 83.2741 134.331 83.3565 134.086 83.3565ZM142.597 78.2472V74.4545H144.14V81H142.644V79.8366H142.576C142.428 80.2031 142.185 80.5028 141.847 80.7358C141.512 80.9687 141.099 81.0852 140.607 81.0852C140.178 81.0852 139.799 80.9901 139.469 80.7997C139.143 80.6065 138.887 80.3267 138.702 79.9602C138.518 79.5909 138.425 79.1449 138.425 78.6222V74.4545H139.968V78.3835C139.968 78.7983 140.082 79.1278 140.309 79.3722C140.536 79.6165 140.835 79.7386 141.204 79.7386C141.431 79.7386 141.651 79.6832 141.864 79.5724C142.077 79.4616 142.252 79.2969 142.388 79.0781C142.528 78.8565 142.597 78.5795 142.597 78.2472Z" fill="#9DA3AF"/>
</svg>
