<svg width="41" height="40" viewBox="0 0 41 40" fill="none" xmlns="http://www.w3.org/2000/svg">
<path d="M30.8541 6.28529V12.662L13.5752 33.6607H10.0953C8.20979 33.6607 6.66699 32.118 6.66699 30.2323V6.28529C6.66699 4.39974 8.19264 2.85693 10.0953 2.85693H27.4258C29.3113 2.85693 30.8541 4.39974 30.8541 6.28529Z" fill="#C6CAD4"/>
<path d="M34.3313 16.137V33.7136C34.3313 35.607 32.7964 37.142 30.9029 37.142H13.57C11.6765 37.142 10.1416 35.607 10.1416 33.7136V9.76625C10.1416 7.87282 11.6765 6.33789 13.57 6.33789H24.5322V12.7086C24.5322 14.602 26.0672 16.137 27.9606 16.137H34.3313Z" fill="#ECEDF1"/>
<path d="M34.3334 16.1416H27.9567C26.0632 16.1416 24.5283 14.6066 24.5283 12.7132V6.33643L34.3334 16.1416Z" fill="#D9DCE3"/>
<path d="M27.1734 25.6217H17.3001C16.3535 25.6217 15.5859 24.8542 15.5859 23.9075C15.5859 22.9609 16.3535 22.1934 17.3001 22.1934H27.1734C28.12 22.1934 28.8876 22.9609 28.8876 23.9075C28.8876 24.8542 28.12 25.6217 27.1734 25.6217Z" fill="white"/>
<path d="M27.1734 32.2394H17.3001C16.3535 32.2394 15.5859 31.4719 15.5859 30.5252C15.5859 29.5786 16.3535 28.811 17.3001 28.811H27.1734C28.12 28.811 28.8876 29.5786 28.8876 30.5252C28.8876 31.4719 28.12 32.2394 27.1734 32.2394Z" fill="white"/>
</svg>
