<svg width="24" height="24" viewBox="0 0 24 24" fill="none" xmlns="http://www.w3.org/2000/svg">
<path d="M10.8004 5.76488C9.53176 5.14667 8.10658 4.7998 6.60039 4.7998C5.0942 4.7998 3.66903 5.14667 2.40039 5.76488V17.7649C3.66903 17.1467 5.0942 16.7998 6.60039 16.7998C8.60272 16.7998 10.4619 17.4128 12.0004 18.4614C13.5389 17.4128 15.3981 16.7998 17.4004 16.7998C18.9066 16.7998 20.3318 17.1467 21.6004 17.7649V5.76488C20.3318 5.14667 18.9066 4.7998 17.4004 4.7998C15.8942 4.7998 14.469 5.14667 13.2004 5.76488V14.3998C13.2004 15.0625 12.6631 15.5998 12.0004 15.5998C11.3376 15.5998 10.8004 15.0625 10.8004 14.3998V5.76488Z" fill="currentColor"/>
</svg>
