<svg width="16" height="16" viewBox="0 0 16 16" fill="none" xmlns="http://www.w3.org/2000/svg">
<path fill-rule="evenodd" clip-rule="evenodd" d="M8 14.4001C11.5346 14.4001 14.4 11.5347 14.4 8.0001C14.4 4.46548 11.5346 1.6001 8 1.6001C4.46538 1.6001 1.6 4.46548 1.6 8.0001C1.6 11.5347 4.46538 14.4001 8 14.4001ZM8.5 4.8001C8.5 4.52396 8.27614 4.3001 8 4.3001C7.72386 4.3001 7.5 4.52396 7.5 4.8001V8.0001C7.5 8.13271 7.55268 8.25988 7.64645 8.35365L9.90919 10.6164C10.1044 10.8117 10.421 10.8117 10.6163 10.6164C10.8116 10.4211 10.8116 10.1045 10.6163 9.90929L8.5 7.79299V4.8001Z" fill="currentColor"/>
</svg>
