<svg width="24" height="24" viewBox="0 0 24 24" fill="none" xmlns="http://www.w3.org/2000/svg">
<path fill-rule="evenodd" clip-rule="evenodd" d="M3.59961 6.0001C3.59961 4.67461 4.67413 3.6001 5.99961 3.6001H17.9996C19.3251 3.6001 20.3996 4.67461 20.3996 6.0001V15.6001C20.3996 16.9256 19.3251 18.0001 17.9996 18.0001H15.3366L15.4832 18.5866L16.4482 19.5516C16.7914 19.8948 16.894 20.4109 16.7083 20.8593C16.5226 21.3077 16.085 21.6001 15.5996 21.6001H8.39964C7.91429 21.6001 7.47673 21.3077 7.29099 20.8593C7.10525 20.4109 7.20792 19.8948 7.55112 19.5516L8.51609 18.5866L8.66271 18.0001H5.99961C4.67413 18.0001 3.59961 16.9256 3.59961 15.6001V6.0001ZM10.5252 14.4001C10.5075 14.3997 10.4899 14.3997 10.4723 14.4001H5.99961V6.0001H17.9996V14.4001H13.527C13.5094 14.3997 13.4918 14.3997 13.4741 14.4001H10.5252Z" fill="currentColor"/>
</svg>
