<svg width="24" height="24" viewBox="0 0 24 24" fill="none" xmlns="http://www.w3.org/2000/svg">
<path fill-rule="evenodd" clip-rule="evenodd" d="M11.0914 3.63572C11.7344 3.79646 12.1253 4.44798 11.9646 5.09094L11.4373 7.19989H14.9635L15.6362 4.50885C15.797 3.8659 16.4485 3.47498 17.0914 3.63572C17.7344 3.79646 18.1253 4.44798 17.9646 5.09094L17.4373 7.19989H20.4004C21.0631 7.19989 21.6004 7.73715 21.6004 8.39989C21.6004 9.06264 21.0631 9.59989 20.4004 9.59989H16.8373L15.6373 14.3999H18.0004C18.6631 14.3999 19.2004 14.9372 19.2004 15.5999C19.2004 16.2626 18.6631 16.7999 18.0004 16.7999H15.0373L14.3646 19.4909C14.2038 20.1339 13.5523 20.5248 12.9093 20.3641C12.2664 20.2033 11.8755 19.5518 12.0362 18.9089L12.5635 16.7999H9.03732L8.36456 19.4909C8.20382 20.1339 7.5523 20.5248 6.90935 20.3641C6.26639 20.2033 5.87548 19.5518 6.03622 18.9089L6.56346 16.7999H3.60039C2.93765 16.7999 2.40039 16.2626 2.40039 15.5999C2.40039 14.9372 2.93765 14.3999 3.60039 14.3999H7.16346L8.36346 9.59989H6.00039C5.33765 9.59989 4.80039 9.06264 4.80039 8.39989C4.80039 7.73715 5.33765 7.19989 6.00039 7.19989H8.96346L9.63622 4.50885C9.79696 3.8659 10.4485 3.47498 11.0914 3.63572ZM10.8373 9.59989L9.63732 14.3999H13.1635L14.3635 9.59989H10.8373Z" fill="currentColor"/>
</svg>
