<svg width="14" height="14" viewBox="0 0 14 14" fill="none" xmlns="http://www.w3.org/2000/svg">
<path d="M1.40039 2.0999C1.40039 1.7133 1.71379 1.3999 2.10039 1.3999H3.6074C3.94959 1.3999 4.24162 1.64729 4.29788 1.98482L4.8154 5.08993C4.86592 5.39306 4.71283 5.69368 4.43797 5.83111L3.35427 6.37296C4.13568 8.31473 5.68557 9.86461 7.62733 10.646L8.16918 9.56232C8.30661 9.28746 8.60724 9.13438 8.91036 9.1849L12.0155 9.70242C12.353 9.75867 12.6004 10.0507 12.6004 10.3929V11.8999C12.6004 12.2865 12.287 12.5999 11.9004 12.5999H10.5004C5.4746 12.5999 1.40039 8.52569 1.40039 3.4999V2.0999Z" fill="currentColor"/>
</svg>
