<svg width="52" height="52" viewBox="0 0 52 52" fill="none" xmlns="http://www.w3.org/2000/svg">
<rect x="2" y="2" width="48" height="48" rx="24" fill="#059456"/>
<rect x="2" y="2" width="48" height="48" rx="24" stroke="#E6F6EF" stroke-width="4"/>
<path fill-rule="evenodd" clip-rule="evenodd" d="M16 26.625V25.375C16 21.2656 16 19.211 17.0895 17.828C17.289 17.5749 17.5119 17.3427 17.7549 17.1349C19.0825 16 21.055 16 25 16C28.945 16 30.9175 16 32.2451 17.1349C32.4881 17.3427 32.711 17.5749 32.9105 17.828C33.7523 18.8966 33.9437 20.3663 33.9872 22.875L34.79 22.4635C37.1251 21.2473 38.2926 20.6393 39.1463 21.1888C40 21.7384 40 23.0982 40 25.8176V26.1824C40 28.9018 40 30.2616 39.1463 30.8112C38.2926 31.3607 37.1251 30.7527 34.79 29.5365L33.9872 29.125C33.9437 31.6337 33.7523 33.1034 32.9105 34.172C32.711 34.4251 32.4881 34.6573 32.2451 34.8651C30.9175 36 28.945 36 25 36C21.055 36 19.0825 36 17.7549 34.8651C17.5119 34.6573 17.289 34.4251 17.0895 34.172C16 32.789 16 30.7344 16 26.625ZM25 21.9375C25.4971 21.9375 25.9 22.3572 25.9 22.875V25.0625H28C28.4971 25.0625 28.9 25.4822 28.9 26C28.9 26.5178 28.4971 26.9375 28 26.9375H25.9V29.125C25.9 29.6428 25.4971 30.0625 25 30.0625C24.5029 30.0625 24.1 29.6428 24.1 29.125V26.9375H22C21.5029 26.9375 21.1 26.5178 21.1 26C21.1 25.4822 21.5029 25.0625 22 25.0625H24.1V22.875C24.1 22.3572 24.5029 21.9375 25 21.9375Z" fill="white"/>
</svg>
